<svg id="Layer_1" data-name="Layer 1" xmlns="http://www.w3.org/2000/svg" width="124.5" height="32.8" viewBox="0 0 124.5 32.8"><defs><style>.cls-1{fill:#818181;}</style></defs><g id="Layer_2" data-name="Layer 2"><g id="Layer_1-2" data-name="Layer 1-2"><path class="cls-1" d="M30.3,32c.2.1.3.1.3.3a.4.4,0,0,0-.1.3h-.6v-.2l-.3-.2-.4.2.2.2h-1c.2-.2.4-.1.7-.1l-.3-.3h-.5v.2c-.1,0-.2-.2-.4-.1v.3H25.7a.2.2,0,0,0-.2-.2h0c0-.1-.2,0-.3,0s0,.1.2.2H23.5v-.4c-.1.1-.2.3-.1.4H21.2l-.8-.3h-.1a.5.5,0,0,1,.4.2H13.1a29.7,29.7,0,0,1-4.2-.3,12.4,12.4,0,0,1-6.3-3.3A7.1,7.1,0,0,1,.7,26.6,10.4,10.4,0,0,1,0,23.1V10.7A2,2,0,0,1,.3,9.6a2.8,2.8,0,0,0,.1-.9H0A9.1,9.1,0,0,1,1.9,4.3a.6.6,0,0,1,0,.6c-.1,0-.1.1,0,.1h.2l.3-.6c0-.1-.1-.2-.1-.4A11.6,11.6,0,0,1,6.6,1v.5c.2,0,.2-.1.2-.1V1.1c0-.2.1-.2.3-.2v.4h.1L7.6,1A.4.4,0,0,1,8.2.6h.5V.8c0,.1.1.3-.1.4s-.1.2-.1.3l.3-.2L9.1.9,9.4.4A8.3,8.3,0,0,1,11.6.1h0c.1.1,0,.3.2.3s.1-.2.1-.2H16c.1.1-.1.4.3.5V.1h2.3l.4.2.9-.2h47V.3h.2c.1.1.1.3.4.2s-.2-.1-.2-.2.1-.1.1-.3h3.8V.3h.3l-.3.2h.4c0,.3-.4.5-.2.8s.2-.4.6-.4h-.1l.2-.5a.4.4,0,0,1,.5.2V0h.2a.6.6,0,0,1,.1.4V.9c.2.2.4.1.7,0L73.2.5c.2-.2.5-.1.7-.2h.6a1.4,1.4,0,0,1,.2.6H75a.6.6,0,0,1,.1-.4l.2-.3.2.2c.1,0,.2-.1.1-.3h.3c0,.1-.1.2-.1.4s-.1.1-.1.2,0,.1-.1.1h-.1c-.1-.1-.2.1-.3.1h.1l-.2.2h-.2v.2h-.1L74.6.8l-.3.2a1.3,1.3,0,0,1-.1.6c-.1-.1-.1-.1-.3,0h.3c-.1,0-.1.1-.1.2s.1.1.1.2h-.4l-.6.4L73,2c-.1.2-.3.3-.5.1h-.4c-.3-.1-.3-.1-.4.1s-.6.1-.8-.1h-.4c0-.2.2-.3.3-.4h.8c0-.1,0-.2-.3-.2h-.4v.3h-.2c-.1-.2-.2-.2-.4-.1H70V2H68c-.1,0-.2,0-.2-.1h-.3a1.4,1.4,0,0,1-.9,0h-2l.3-.5h0l-.6-.2-.2.5c0,.2,0,.2-.4.2H21.8V1.6c-.3.2-.1.4-.2.6H13.1a1.3,1.3,0,0,1,.1-.6V1.1c.1-.1,0-.2-.2-.3s-.3.2-.3.4a1.7,1.7,0,0,1,0,1H10.2l-.9.2H9.2L8.9,2c-.3,0-.2.2-.4.2a.4.4,0,0,1,.1.3q0,.2-.3.3l-.9.4-.3-.3c0,.5-.4.6-.7.8s.2-.5,0-.7-.2.2-.3.3a.5.5,0,0,0,0,.5l-.4.3H5.4c.1.2-.1.3-.2.5A5.5,5.5,0,0,0,2.9,8.5c0,.3-.1.6-.1.9V23.6c.2,2.9,2,5.1,5.5,6.4l.6.2a17.5,17.5,0,0,0,3.2.4H23.4c.1.1.1.3.2.4l.4.2c.2,0-.2-.4-.2-.6h3.4l-.2.3h.4c.1.2-.1.5.4.4V31l.5-.4h.1c0,.2-.1.3.2.4h.2v-.4h1.4a.7.7,0,0,1,.6.1h.9a.4.4,0,0,0,.1.3c0,.1.1.2.1.3v.2h-.1l-.2-.2-.6.4v.2c.2.1.2.1-.1.3s-.1-.2-.1-.3l-.2-.2h.2l-.4-.3v.4l-.4-.3c-.1.2-.1.4-.2.6h.1c.1,0,.1,0,.1.1s0,.3.3.4l-.3-.4h.4c-.1,0-.1,0-.1-.1ZM72,1.2l.2.2V1.2h.3V.9h-.3ZM28.5,31.8v-.2c0-.1,0-.1-.1-.1h-.1c0,.1.1.2.2.1h0c.2.1.2.3.4.4s.2-.2,0-.3Zm-2.2.4c.1,0,.2-.1.1-.1s0-.1-.2-.2v.2c-.2,0,0-.2-.2-.3s-.3.2-.2.3l.6.3ZM69.8,1l-.2.2.3.2V1c.1,0,.3,0,.3-.2S70,.7,69.9.6s-.3,0-.4.1l.2.3ZM15.3,1h.2c0-.2-.1-.4-.1-.6L15.2.2h-.3V.9c.1.2.1.4.3.5S15.2,1.2,15.3,1ZM29.1,30.9c.1.2,0,.5.2.7s-.2.2,0,.4.3-.2.4-.2,0-.1-.1-.2S29.3,31.1,29.1,30.9ZM2,11.5c.3-.4.4-.7.2-.9H2A1.4,1.4,0,0,0,2,11.5ZM68.4.1c-.2.2-.2.4-.1.4h.3C68.8.3,68.7.2,68.4.1ZM21,32.2h.1l.4-.2c-.1-.2-.2-.3-.4-.2ZM68.8,2.1c.1-.2-.1-.3-.2-.4h-.1C68.5,2,68.5,2.1,68.8,2.1ZM68.5.7l.3.2h-.3ZM1.8,12h0a.5.5,0,0,0-.2.4h.2A.3.3,0,0,0,1.8,12ZM21.3,31c.1.2.1.4.4.3S21.7,31.1,21.3,31Zm-4,.9c0-.2-.1-.3-.4-.3S17.1,31.9,17.3,31.9ZM16.6,1.4h0c0-.1,0-.2-.1-.2s-.1.1-.1.2S16.4,1.5,16.6,1.4Zm7.6,29.9.2.2v-.2c0-.1-.2-.1-.3,0ZM73.4,2V1.7h-.5Zm.5-1c.2-.2.2-.3-.1-.4Zm-4.7.3h.1L69.1,1h.1ZM7.1,2.1c.3-.1.3-.2.1-.4s-.2.2-.1.3Zm10.3-.3h0Zm-3,29.8h.1l-.4-.2c.1.1.1.3.3.3Zm9.1.1h-.1l.3.2h-.2Zm3.6-.4h.1c.1-.1.1-.2-.1-.4ZM1.3,9.1H1.2c-.1,0-.1.1-.1.2h.2ZM69.9,1.8h-.4C69.7,2,69.8,2,69.9,1.8ZM20.7,1.1c0-.1,0-.1-.1-.1h.1ZM26.2,31h-.4l.2.2ZM70.6.3h-.3C70.5.5,70.5.5,70.6.3ZM11.7,1h-.1a.4.4,0,0,0,.1.3ZM31.4,31h.2c.1,0,.1,0,.1-.1h-.3ZM7.6,1.7h.1c.1-.1.1-.1-.1-.2ZM24.8,32.6h.1v-.2C24.6,32.5,24.7,32.6,24.8,32.6ZM69,1.7Zm3.6,0h-.2c0,.2.1.2.2.2Zm-47,29.9c-.1-.2-.1-.2-.4-.2Zm45-30.2c-.1-.1-.2-.1-.3.1S70.6,1.5,70.6,1.4ZM69,1.4Zm4.3-.2v.2h0Zm-54,29.6h0Zm7.4-.2c-.2.1-.2.1-.1.3A.4.4,0,0,0,26.7,30.6ZM9.9,2.2h.2C9.9,2,9.9,2,9.9,2.2ZM29.5,31Zm44-29.3c.1.1.2,0,.3,0Zm-4-.3c0,.1,0,.1.2.2ZM20,31.7c0,.1,0,.2.2.2ZM30.9,31h0Zm-1.8.7c.1-.1.1-.1,0-.2H29C28.9,31.6,29,31.6,29.1,31.7Zm-9.6,0h0l-.2-.2h-.1ZM67.3,1.2h0s-.1-.1-.2.1Zm-38.8,30h-.2c0,.1,0,.1.1.1S28.5,31.3,28.5,31.2ZM68.3,1.7h0s.1-.1,0-.1,0-.1-.1-.1h0ZM72.7.4ZM21.1,32.5c.1,0,.2,0,.2-.2ZM6.8,2.4c0-.1-.1-.1-.2-.1h.2ZM6.4,30.7Zm20,1.8Zm-8.1-1.4h0Zm12.9-.2c-.1,0-.1,0-.1.1h.1Zm-11.6.3h0Zm11-.1Zm-4.2.2h.1v-.2h-.1Zm-.9.8c.1,0,.1,0,.1-.1h-.1Zm-5.6-.8h0Zm53.8-30ZM3.3,4.5ZM68.4,1.1Zm-.4.1ZM23,1.6h0ZM65.4.9Zm-38,31.3c0-.1,0-.1.1-.1h-.2A.1.1,0,0,1,27.4,32.2ZM71,.8ZM24.8,32.2Zm-2.1-1ZM70.2.7Zm-3.5,1h.1c-.1,0-.1,0-.1.1ZM8.3,2.7h0ZM69.8.3Z" transform="translate(0 0)"/><path class="cls-1" d="M124.2,14.6a.4.4,0,0,1,.2.5v.4H124l.2.2a.5.5,0,0,1,.2.4,5.4,5.4,0,0,1,0,1.8v2.7h-.3v.2h.2v1.6H124l.3.2c.1,0,.2.1.1.2v.9H124l.4.2a3.2,3.2,0,0,1-.3,1.4c0,.2-.1.3-.2.5a6.6,6.6,0,0,1-.9,1.9,9.6,9.6,0,0,1-2.7,2.6l-1.2.7v-.2c-.1.4-.5.5-.8.7h-.1c0-.1.2-.2.1-.4s-.2.3-.1.4a4,4,0,0,1-1.8.7l-2.8.5H100.9l.3-.2c.2-.1.1-.2,0-.3a.2.2,0,0,0-.3,0h0c-.2,0-.2.2-.2.3a.2.2,0,0,0,.2.2,1.1,1.1,0,0,1-.8.1c-.1-.1.1-.3-.1-.4s-.1-.2-.3-.1.1.3,0,.5H48c-.1.1-.3,0-.5-.1h-.3a1.1,1.1,0,0,1-.8.1H41.2v-.2c-.2-.1-.4-.1-.5.1l.3-.6h.3c-.1-.2-.3-.4,0-.6a.5.5,0,0,0-.5.3l-.3.8h-.1c-.3,0-.6-.2-.9,0s.1-.3.2-.3h.4c.3-.1.3-.1.3-.3h-.2c.1,0,.2-.1.1-.2s-.2,0-.2.1H40a.5.5,0,0,1-.4.2v.2l-.3.4H39l-.2-.2v.2h-.2c-.2.1-.4.2-.6,0a.7.7,0,0,1-.6.1c-.1-.2.1-.3.1-.5s-.2.1-.3.2h0v-.3h-.4c-.2-.2-.1-.3,0-.5a.8.8,0,0,0,.1-.4v-.4h.3c.1-.1.2-.1.2-.2h.3l.2.4c-.2,0-.2-.1-.2-.1s-.2-.2-.3-.1h0c-.1,0-.1.1,0,.2s-.1.3-.2.4v-.3c-.2.2-.3.3-.2.5h.5l.2-.3c.1.1.2.2.1.3s-.2.2-.2.3H38l.3-.3v-.2c0-.1.1-.1.1-.2a.6.6,0,0,1-.4.8h-.1v.4h.4v-.4h.3l.2-.2c0,.1.1.2.3.2s.1,0,.1-.1h-.4c0-.1,0-.1.1-.1s.4,0,.5-.2-.3-.3-.6-.1l.6-1h.7a2.1,2.1,0,0,1,1.1,0v.5l.5-.3c0,.2,0,.2.1.1h-.1c.1-.2.3,0,.5,0v.3c.3-.1.3-.3.4-.5H86.9a.5.5,0,0,1,.6.2c.1-.2.3-.2.5-.2h5.8l.3.2.3-.2h8.9c.2-.1.4,0,.6.2s.2-.2.4-.2h3.4c.2,0,.3-.1.4.1s.2.1.3,0h2.2a23,23,0,0,0,3.7-.2,10.5,10.5,0,0,0,5.3-2.5,5.6,5.6,0,0,0,1.4-2,5.4,5.4,0,0,0,.6-2.5V22.5c.1-.1-.1-.1-.1-.2V19.2c-.1-.1,0-.3.2-.3h0c-.2-.1-.2-.1-.2-.3V17a.4.4,0,0,1,.1-.5c.1-.1.1-.2-.1-.2V16h.2a.5.5,0,0,0,0-.5l-.2.4V13.2a.4.4,0,0,1,.1-.3l.3-.2h0v-.2c0-.1,0-.2.1-.2a.4.4,0,0,0,.1-.3c-.1-.1,0-.2.1-.3a1.6,1.6,0,0,0,.5-1.1c0-.2.1-.3.2-.5a1,1,0,0,1,.4-.5V10h.1a2.5,2.5,0,0,1,.4-.7c.1-.2.3-.2.5,0h0a2.9,2.9,0,0,1,0,1.3h0v.8c-.1.3-.1.7-.2,1.1h.1c.2.1.1.3.1.4a1.2,1.2,0,0,1-.2,1c0,.1-.1.2-.1.3v.2ZM42,31.4v.2h.2v-.4l-.2.2Zm-3.1,1h-.1c-.1.1,0,.1.1.1v.3c.2-.1.3-.2.3-.4Zm.7-1.5c.3.3-.2.3-.2.5h.4v.2l.5-.5h.3a.2.2,0,0,0,.2-.2h0c-.2-.2-.3.1-.5,0s-.2.2-.4.1v-.2Zm59.3,1.4-.4-.4c-.2-.1-.4-.1-.4.1v.2h.8Zm24.5-22.2c-.1.1-.2.1-.2.2a.4.4,0,0,1,.1.3l-.2.4c.1.1,0,.2-.3.4s.4-.4.7-.4-.1-.2-.1-.3A.6.6,0,0,0,123.4,10.1Zm.4,6.1c.3.1,0,.3.2.4s.2,0,.2-.1v-.6Zm.5,5.4c-.2.2-.5.1-.6.4h.5ZM124,9.7h-.1c0,.1-.1.2,0,.3l.2.2h.2l-.3-.4ZM95.9,32c.1,0,.2,0,.2-.1h0l-.2-.3-.3.2C95.6,31.9,95.7,32,95.9,32Zm-20.7-.6a1.3,1.3,0,0,0,.1-.6C75,31,75,31.1,75.2,31.4Zm26.6-.4h-.3c-.1-.1-.3,0-.2.1v.2Zm-3.1-.1h.2a.2.2,0,0,0,.2-.2h-.2C98.8,30.6,98.7,30.7,98.7,30.9Zm23.6-12a1.4,1.4,0,0,0,.2-.6.4.4,0,0,0-.2.5Zm.6-6.9c.4-.1.5-.2.3-.5Zm.9,0h-.1a.5.5,0,0,0,.5.3h0ZM100.6,30.6c0,.1-.1.1-.1.2h.1a.2.2,0,0,0,.2-.2Zm23.2-16.8v.5C124,14,124,14,123.8,13.8Zm-.9-.3h-.1l.5.3C123.3,13.6,123,13.6,122.9,13.5Zm1.1,4.9h.3l-.2-.2h-.2Zm-1.4.8a.7.7,0,0,0,.6-.2ZM100.1,31.8c.1.2.1.2.3,0Zm22.5-4.5.2-.2c-.1,0-.1,0-.1-.1h0Zm-28,4.4h-.1c0,.1.1.1.1.2l.2-.2Zm27.9-19.3a.2.2,0,0,0,0-.3h0C122.2,12.2,122.5,12.3,122.5,12.4Zm.6,9.2h.1l.2-.4h0Zm-.9-2.5c-.2.1-.2.2-.2.4S122.1,19.3,122.2,19.1Zm0,5.7h0v.4h.1ZM98,31.3c0-.1,0-.1-.1-.1s-.1,0-.1.1H98Zm24.2-10c-.2,0-.2.1-.2.2h.1C122.3,21.5,122.3,21.4,122.2,21.3Zm-17.4,9.8c.1-.1.1-.1.1-.2h-.1c-.1,0-.1,0-.1.1S104.8,31,104.8,31.1Zm17.7-16.8c.1-.2.1-.2,0-.3Zm1.6,10.2h-.2C124,24.6,124.1,24.6,124.1,24.5Zm-10.8,8Zm-69.2-.7h.1l.2-.2h-.1ZM122,13.6h.1v-.3H122ZM42.3,31.8V32h0l.3-.2Zm50-.9h-.2C92.2,31,92.2,30.9,92.3,30.9Zm-50.5,1c-.1,0-.3.1-.2.2S41.8,32,41.8,31.9Zm81-17.2c.1-.3.1-.3,0-.4Zm.8,9.2Zm-1.8-9.8h.1v-.3h-.1ZM102,32.5h-.1c0,.1,0,.1-.1.1h.2Zm.4-1.7h-.2C102.4,31,102.4,30.9,102.4,30.8Zm-8.5,1.6Zm26.4-4.9h0v.2h.1Zm3.6-7c-.1,0-.1,0-.1-.1s-.1,0-.1.1h.2Zm-77,11c.2,0,.2,0,.2-.2Zm-2.5.7h-.1l-.2.2Zm79.2-21ZM85.2,31.1ZM43.9,32.5c.1.1.2.2.3,0Zm57.8-1.1Zm-8.4.4Zm-56.2.1H37l.2.2C37.3,31.9,37.1,31.9,37.1,31.9Zm64.3-.2h0c-.1,0-.1,0-.1.1ZM120.5,28c-.2.1-.2.1-.1.3Zm2.9-12.8c-.3.1-.3.1-.2.2Zm.4,8ZM102.7,31c-.1,0-.1,0-.1.1h.1Zm-6,.2ZM123,14.1c-.1-.2-.1-.2-.2-.1Zm.8-1.4ZM44.5,31.9h-.2c-.1,0-.1,0-.1.1h.3Zm60.9.2Zm-12.9.3ZM124,24.3Z" transform="translate(0 0)"/><path class="cls-1" d="M87.3,2.1c.2-.3.6-.5.6-.8s.2-.2.3-.3V.7h.1c-.1-.2-.1-.3.2-.4H99.2l.3.4c.2-.1,0-.2.2-.3h12.7l2.8.4,1,.2-.3.5h.1a1,1,0,0,0,.5-.6c.2,0,.1.2.2.2v.3h.2v.3c.3-.1.3-.4.6-.5s-.1.3-.1.4l-.3.4c-.2.1,0,.3-.2.4s0,.4-.3.8l-1.9-.5a8.2,8.2,0,0,0-2.2-.2H92c-.1-.3.2-.7-.2-.9s-.3.2-.3.4v.5H90.2c-.1,0-.1-.1-.2-.2l-.5.2H87.4c-.1,0-.1,0-.1-.1Zm6.6-.2H94V1.6h.3a1.9,1.9,0,0,1-.2-.7h.4a.5.5,0,0,0-.6-.2c-.1,0-.2.1-.2.3v.4c.1.2,0,.5.2.6ZM90.5.4c0,.1-.1.3-.1.4h.2C90.7.7,90.8.5,90.5.4ZM95,.5h-.1a.5.5,0,0,0,0,.5h.2ZM95.3,2h.1V1.8c0-.1,0-.1-.1-.1h-.1v.2Zm21-.6c-.3.2-.3.2-.2.4A.5.5,0,0,0,116.3,1.4Zm-17,.3h0ZM89.1.3a.4.4,0,0,0,.5.1A.4.4,0,0,0,89.1.3Zm1.4,1.2q-.3.2,0,.3ZM102.1.2ZM89.7,1.6c.1-.1.1-.2,0-.2h-.1C89.6,1.5,89.6,1.6,89.7,1.6Zm8.2-1ZM91.4,1h-.2c0,.1,0,.1.1.1Zm-2.7.5Z" transform="translate(0 0)"/><path class="cls-1" d="M122.3,7.8a.5.5,0,0,1-.1.6c-.1,0-.1.2-.2.3h.6a1,1,0,0,0-.5.8,1.2,1.2,0,0,1-.5.5c-.1-.2,0-.3.1-.4a.8.8,0,0,0,.2-.5h-.3a4.3,4.3,0,0,0-.6-2.2,4.7,4.7,0,0,0-.7-1.2c-.1-.3-.2-.5,0-.7l.3-.2V4.6h.2l.4-1.5.2.2h-.2l.2.2.3-.2,1,1.1c-.1.1-.3.1-.2.3l.2-.3c.2.1,0,.3.1.5h.2c-.1.1.1.3-.1.4s0,.2-.1.4-.1.1-.2.2h-.1a1.3,1.3,0,0,1,.1.6h.2l.3.2-.5.3c.1.3.1.3-.3.4h0Zm-.8-4h0a.5.5,0,0,0-.1.7h.2c-.1.1-.2.2-.1.3s0,.2-.2.2-.1.1-.1.2v.3h0l.2-.2c.2.1-.1.3.2.4s.1-.3.1-.5l.2-.5-.2-.2h-.1a1.7,1.7,0,0,0-.1-.7l.2.4a.4.4,0,0,0,.1-.3C121.8,3.8,121.7,3.7,121.5,3.8Zm.5,3.1c.3-.6.3-.7.1-.9l-.3.7Zm-.9-2.2-.3.5a.4.4,0,0,0,.4-.4h-.1Zm1.2,2.8.3-.4C122.3,7.1,122.2,7.2,122.3,7.5Zm-1-.6h.3c0-.2,0-.2-.2-.3Zm.9.1h.1V6.7C122.1,6.8,122.1,6.9,122.2,7Zm0,.7c-.2,0-.2,0-.2.2Zm.5-2.8-.2.2Zm-.8-.8a.2.2,0,0,0,0-.3h0Zm-.2,4.2c.2.1.2,0,.3-.1h-.3Zm.1-.3Z" transform="translate(0 0)"/><path class="cls-1" d="M119.5,3.9v.7l-.5-.4c.1-.1.1-.2.1-.4s.1-.2-.1-.2.2-.3.2-.5V2.9H119c-.1.1-.2.1-.1.2a.6.6,0,0,1-.1.4c.1,0,.1,0,.1.1l-.2.5-.6-.4-.5-.3-.7-.3c.1-.1.1-.1.1-.2s.2-.3.1-.5-.1-.2,0-.2l.6-1h.2v.3h.1V1.2l1.3.6V2c-.2.1-.2.1-.1.3h.1c.3-.1,0-.4.3-.5s.2.2.1.4a1.4,1.4,0,0,0-.2.6c-.1.1-.1.3-.2.5s0,.1.1.2h0c-.1.2-.3.3-.1.5Zm-1.8-2.1h.1V1.6h-.1Z" transform="translate(0 0)"/><path class="cls-1" d="M83.1,2a.8.8,0,0,0,.2-.8h.5v.3H84v.2c0,.1-.1.2-.1.3l.8-.2c-.1-.2-.2-.2-.4-.1s.6-.4.3-.7.5,0,.4.1.2.2.2.3h.2c.1-.1,0-.3,0-.3a.6.6,0,0,1-.1-.4h.2V.5l.4-.2h-.7c.2-.1.3,0,.4.1h.3c0,.1,0,.2-.2.3s-.1.2-.1.2a1.1,1.1,0,0,1,.1.7h-.1c0,.1.1.2.3.2s0-.6.1-.9a2.8,2.8,0,0,0,.1-.9H86c-.1.2,0,.3-.1.5a.4.4,0,0,1-.1.3.4.4,0,0,1,.1.5h0c.1,0,.1.1.1.2h.4c0-.1-.1-.2,0-.2s.1-.4.2-.7a1.3,1.3,0,0,0,.1-.6h1.1V.4c-.5.3-.4.6-.4,1s-.4,0-.3.2l-.2.2.3.3h-.8v.2H84.7V2c.2,0,.2,0,.2-.2s-.3.1-.2.2-.2,0-.2.1H83.1c.1.2.1.2.3,0Zm3.7-.6h-.2c0,.1.1.1.2.1s.1-.1,0-.1.3,0,.2-.2Zm.1-1Z" transform="translate(0 0)"/><path class="cls-1" d="M119.4,3.6l.3-.3c-.2-.2.1-.4.2-.6l.3-.4h.3l-.4.5h0l.5-.4c.1,0,.1.1.1.2s-.1.1-.2.2,0,.2.2.2l.3-.4c.1.2-.1.4-.4.7a1.7,1.7,0,0,1-.2,1.2V4.2h-.1l-.3.7c0-.1,0-.1-.1-.2l.3-.5a.8.8,0,0,0,0-.9.5.5,0,0,0-.3.5,1.3,1.3,0,0,1-.1.6.5.5,0,0,1-.2.4c-.1,0-.1-.1,0-.2a.4.4,0,0,0,.1-.5.4.4,0,0,1,.1-.3h-.3c.1-.1.1-.3-.1-.3Z" transform="translate(0 0)"/><path class="cls-1" d="M122.8,9.8c-.1-.3.1-.5.3-.8H123l-.5.2a2.3,2.3,0,0,0,.6-1.6c.1.1.1.1.1.4s-.2.2.1.3.1-.2.1-.3V7.5l.3-.3a.6.6,0,0,1-.1.4c0,.1-.1.2,0,.3s0,.1-.1.2-.2.4,0,.5h.1c.1.1,0,.2-.2.2v.4h-.3l-.2.2-.2.2Z" transform="translate(0 0)"/><path class="cls-1" d="M122.7,9.8l-.2.4c-.1.2-.2.3-.2.5V11l-.4.7-.2.2c-.1-.2-.2-.4,0-.6a.4.4,0,0,0,.1-.3h-.2a1.1,1.1,0,0,1,.1-.8c.2,0,.1.1.1.2v.3l.3-.3a.5.5,0,0,1,.2-.4.5.5,0,0,0,.2-.4Z" transform="translate(0 0)"/><path class="cls-1" d="M34.4,31H34a.8.8,0,0,0-.2.5h0c-.1-.2-.3-.5,0-.6s-.1-.2-.3-.2-.2-.2-.4-.1l.3-.3h.2v.2l.6-.2V31Z" transform="translate(0 0)"/><path class="cls-1" d="M83.8,1.2c.1-.1.1-.1-.1-.2s-.3-.1-.2-.4H84c.1-.1,0-.2.1-.4l-.3.2V0h.5c-.2.2,0,.3-.2.4s-.2.3-.1.5,0,.2-.2.2Z" transform="translate(0 0)"/><path class="cls-1" d="M31.7,32.4v.2h-.1c-.1-.1-.2-.2,0-.4h.3v-.4h.2l-.2.6c.1,0,.3.1.2.2S31.8,32.5,31.7,32.4Z" transform="translate(0 0)"/><path class="cls-1" d="M74.2,2H75l.3.2.3-.2.2.2c-.4.2-.7,0-1-.1s-.3.2-.5.2,0-.2-.1-.2Z" transform="translate(0 0)"/><path class="cls-1" d="M124.2,8.3l.2.2c-.2.1-.1.3-.1.5h0l-.3-.3c-.1,0,0,.3-.3.2S124,8.5,124.2,8.3Z" transform="translate(0 0)"/><path class="cls-1" d="M33.6,31.8c-.2.2-.4.3-.1.5l-.2.2h-.1c.1-.1.1-.1.1-.2s-.1.2-.4.2.1-.3.2-.4S33.2,31.8,33.6,31.8Z" transform="translate(0 0)"/><path class="cls-1" d="M76.2,1.8h.2c.1-.1.3-.2.3-.4h.2v.2c.2.2.2.2-.1.2Z" transform="translate(0 0)"/><path class="cls-1" d="M32.7,31.2c-.2.1-.4.1-.2.3s-.2,0-.2.1v-.5S32.6,30.9,32.7,31.2Z" transform="translate(0 0)"/><path class="cls-1" d="M39.1,30.7c-.5,0-.3.3-.4.5s0-.4,0-.6h.4Z" transform="translate(0 0)"/><path class="cls-1" d="M119.4,3.6c.2,0,.2.2.1.3h0l-.2.2C119.1,3.9,119.3,3.8,119.4,3.6Z" transform="translate(0 0)"/><path class="cls-1" d="M123,6.4c-.2-.2,0-.4,0-.6S123.2,6.1,123,6.4Z" transform="translate(0 0)"/><path class="cls-1" d="M83.1,1.4h-.5V1.1l.7.2Z" transform="translate(0 0)"/><path class="cls-1" d="M76.5.7c.2-.1.2-.1.2-.4s.2,0,.2.1V.7C76.8.8,76.7.8,76.5.7Z" transform="translate(0 0)"/><path class="cls-1" d="M38.2,31H38c0-.1.1-.1.1-.2h.4C38.3,30.7,38.2,30.8,38.2,31Z" transform="translate(0 0)"/><path class="cls-1" d="M30.3,32a.3.3,0,0,1,0-.4h.3Z" transform="translate(0 0)"/><path class="cls-1" d="M76.2.6c0-.2.2-.4-.1-.5h.3a.9.9,0,0,1-.1.5Z" transform="translate(0 0)"/><path class="cls-1" d="M27.8,30.9l-.3-.3h.4Z" transform="translate(0 0)"/><path class="cls-1" d="M38,31.2c0,.1.2.3,0,.4S37.8,31.3,38,31.2Z" transform="translate(0 0)"/><path class="cls-1" d="M37,32.4l-.3.2v-.3C36.9,32.2,36.9,32.4,37,32.4Z" transform="translate(0 0)"/><path class="cls-1" d="M34.3,32.3v-.5h.1v.5Z" transform="translate(0 0)"/><path class="cls-1" d="M76.3,2a.4.4,0,0,1-.5-.1Z" transform="translate(0 0)"/><path class="cls-1" d="M75.7,1.4h-.2l.3-.2C75.9,1.2,75.7,1.3,75.7,1.4Z" transform="translate(0 0)"/><path class="cls-1" d="M75.9,1.7l.2-.4v.3Z" transform="translate(0 0)"/><path class="cls-1" d="M122.3,7.8c.4-.1.4,0,.3.3S122.5,7.8,122.3,7.8Z" transform="translate(0 0)"/><path class="cls-1" d="M83,1Z" transform="translate(0 0)"/><path class="cls-1" d="M123.3,5.4l.2.4C123.3,5.6,123.3,5.6,123.3,5.4Z" transform="translate(0 0)"/><path class="cls-1" d="M32.8,30.6h0v.2h-.1Z" transform="translate(0 0)"/><path class="cls-1" d="M31.9,30.8l.2-.2C32.3,30.8,32.3,30.8,31.9,30.8Z" transform="translate(0 0)"/><path class="cls-1" d="M36.1,31.7l-.2.3C35.8,31.8,35.8,31.7,36.1,31.7Z" transform="translate(0 0)"/><path class="cls-1" d="M83.3,1.2,83,1h.4C83.4,1.1,83.3,1.1,83.3,1.2Z" transform="translate(0 0)"/><path class="cls-1" d="M76.2,1.2l.3-.4C76.5,1,76.6,1.1,76.2,1.2Z" transform="translate(0 0)"/><path class="cls-1" d="M74.7,1.6l-.2.2h-.1C74.4,1.5,74.5,1.6,74.7,1.6Z" transform="translate(0 0)"/><path class="cls-1" d="M123.7,8.5V8.1C123.8,8.3,123.8,8.3,123.7,8.5Z" transform="translate(0 0)"/><path class="cls-1" d="M35.7,30.9l.3-.3c0,.2-.1.2-.2.3Z" transform="translate(0 0)"/><path class="cls-1" d="M35.6,30.8V31C35.4,30.9,35.5,30.8,35.6,30.8Z" transform="translate(0 0)"/><path class="cls-1" d="M76.2.6c0,.2,0,.2-.3.2Z" transform="translate(0 0)"/><path class="cls-1" d="M34.4,31h.3v.2l-.2-.2Z" transform="translate(0 0)"/><path class="cls-1" d="M36.4,31.2H36V31Z" transform="translate(0 0)"/><path class="cls-1" d="M35.8,32.5l-.2.2C35.6,32.6,35.6,32.5,35.8,32.5Z" transform="translate(0 0)"/><path class="cls-1" d="M75.2,1.6c-.2-.1-.2-.2-.1-.3Z" transform="translate(0 0)"/><path class="cls-1" d="M123.1,5.6h0v0Z" transform="translate(0 0)"/><path class="cls-1" d="M124.2,14.7c.1-.2.1-.2.3-.1h-.3Z" transform="translate(0 0)"/><path class="cls-1" d="M35,30.7Z" transform="translate(0 0)"/><path class="cls-1" d="M73.1.1Z" transform="translate(0 0)"/><path class="cls-1" d="M40.3,31.9c-.1,0-.2.2-.3,0Z" transform="translate(0 0)"/><path class="cls-1" d="M35.4,31.4Z" transform="translate(0 0)"/><path class="cls-1" d="M82.5,1.9Z" transform="translate(0 0)"/><path class="cls-1" d="M36.3,32.5v.2h-.1v-.2Z" transform="translate(0 0)"/><path class="cls-1" d="M15.3,1c-.1.2.1.3-.1.4s-.2-.3-.3-.5V.3h.3l.2.2c0,.2.1.4.1.6Z" transform="translate(0 0)"/><path class="cls-1" d="M29.1,30.9c.2.2.6.3.5.7s.1.1.1.2-.4,0-.4.2-.2-.2,0-.4S29.2,31.1,29.1,30.9Z" transform="translate(0 0)"/><path class="cls-1" d="M2,11.5a1.1,1.1,0,0,1,0-.8h.2C2.4,10.8,2.3,11.1,2,11.5Z" transform="translate(0 0)"/><path class="cls-1" d="M69.8,1h-.2L69.4.7c.1-.1.3-.2.4-.1s.3.1.3.2Z" transform="translate(0 0)"/><path class="cls-1" d="M70.8,1.8H71V1.5h.4c.3,0,.3.1.3.2h-.9Z" transform="translate(0 0)"/><path class="cls-1" d="M68.4.1c.3.1.4.2.2.4h-.3C68.2.5,68.2.3,68.4.1Z" transform="translate(0 0)"/><path class="cls-1" d="M26.3,32.2v.2l-.6-.3c-.1-.1.1-.2.2-.3s0,.3.2.3Z" transform="translate(0 0)"/><path class="cls-1" d="M21,32.2v-.4c.2-.1.3,0,.4.2Z" transform="translate(0 0)"/><path class="cls-1" d="M68.8,2.1c-.3,0-.3-.1-.3-.2h.1C68.7,1.8,68.9,1.9,68.8,2.1Z" transform="translate(0 0)"/><path class="cls-1" d="M68.5.7h0Z" transform="translate(0 0)"/><path class="cls-1" d="M1.8,12a.3.3,0,0,1,0,.4H1.6A.5.5,0,0,1,1.8,12Z" transform="translate(0 0)"/><path class="cls-1" d="M28.5,31.8h.4c.2.1.1.2,0,.3s-.2-.3-.4-.4h0Z" transform="translate(0 0)"/><path class="cls-1" d="M21.3,31c.4.1.4.1.4.3S21.4,31.2,21.3,31Z" transform="translate(0 0)"/><path class="cls-1" d="M17.3,31.9c-.2,0-.4-.1-.4-.3S17.3,31.7,17.3,31.9Z" transform="translate(0 0)"/><path class="cls-1" d="M16.6,1.4c-.2.1-.2,0-.2-.1s0-.2.1-.2.1.1.1.2Z" transform="translate(0 0)"/><path class="cls-1" d="M24.2,31.3c.1-.1.3-.1.3,0v.2Z" transform="translate(0 0)"/><path class="cls-1" d="M73.4,2l-.5-.2h.5Z" transform="translate(0 0)"/><path class="cls-1" d="M73.9,1V.6C74.1.7,74.1.8,73.9,1Z" transform="translate(0 0)"/><path class="cls-1" d="M69.2,1.3h-.1l.2.2Z" transform="translate(0 0)"/><path class="cls-1" d="M7.1,2.1c-.1-.2,0-.3.1-.4h0C7.4,1.9,7.4,2,7.1,2.1Z" transform="translate(0 0)"/><path class="cls-1" d="M17.4,1.8h-.3c0-.1,0-.1.1-.1h.2Z" transform="translate(0 0)"/><path class="cls-1" d="M14.4,31.6c-.2,0-.2-.2-.3-.3l.4.2Z" transform="translate(0 0)"/><path class="cls-1" d="M23.5,31.7h.2l-.3-.2Z" transform="translate(0 0)"/><path class="cls-1" d="M27.1,31.3v-.4c.2.2.2.3.1.4Z" transform="translate(0 0)"/><path class="cls-1" d="M1.3,9.1v.2H1.1c0-.1,0-.2.1-.2Z" transform="translate(0 0)"/><path class="cls-1" d="M69.9,1.8c-.1.2-.2.2-.4.1Z" transform="translate(0 0)"/><path class="cls-1" d="M72.4,1v.3h-.2V1Z" transform="translate(0 0)"/><path class="cls-1" d="M20.7,1.1h0Z" transform="translate(0 0)"/><path class="cls-1" d="M28.5,31.7c-.1.1-.2,0-.2-.1h.2v0Z" transform="translate(0 0)"/><path class="cls-1" d="M69.8,1v.4l-.3-.2.2-.2Z" transform="translate(0 0)"/><path class="cls-1" d="M30,32.1l.3.4C30,32.4,30,32.3,30,32.1Z" transform="translate(0 0)"/><path class="cls-1" d="M26.2,31l-.2.2-.2-.2Z" transform="translate(0 0)"/><path class="cls-1" d="M70.6.3c-.1.2-.1.2-.3.1Z" transform="translate(0 0)"/><path class="cls-1" d="M11.7,1v.3a.4.4,0,0,1-.1-.3Z" transform="translate(0 0)"/><path class="cls-1" d="M31.4,31h.3c0,.1,0,.1-.1.1h-.2Z" transform="translate(0 0)"/><path class="cls-1" d="M7.6,1.7V1.5c.2.1.2.1.1.2Z" transform="translate(0 0)"/><path class="cls-1" d="M26.3,32.2h-.1V32c.2.1.2.1.2.2Z" transform="translate(0 0)"/><path class="cls-1" d="M24.8,32.6c-.1,0-.2-.1,0-.2Z" transform="translate(0 0)"/><path class="cls-1" d="M67.8,2.1c0-.1,0-.1.2-.1s.1,0,.1.1Z" transform="translate(0 0)"/><path class="cls-1" d="M69,1.7Z" transform="translate(0 0)"/><path class="cls-1" d="M72.6,1.7c-.1,0-.2,0-.2-.2h.2Z" transform="translate(0 0)"/><path class="cls-1" d="M25.6,31.6l-.4-.2C25.5,31.4,25.5,31.4,25.6,31.6Z" transform="translate(0 0)"/><path class="cls-1" d="M70.6,1.4c0,.1-.1.1-.3.1h0C70.4,1.3,70.5,1.3,70.6,1.4Z" transform="translate(0 0)"/><path class="cls-1" d="M69,1.4Z" transform="translate(0 0)"/><path class="cls-1" d="M73.3,1.2c.1,0,.2,0,.2.1h-.2Z" transform="translate(0 0)"/><path class="cls-1" d="M19.3,30.8H19c0-.1,0-.1.1-.1h.2Z" transform="translate(0 0)"/><path class="cls-1" d="M26.7,30.6a.4.4,0,0,1-.1.3C26.5,30.7,26.5,30.7,26.7,30.6Z" transform="translate(0 0)"/><path class="cls-1" d="M9.9,2.2c0-.2,0-.2.2-.1Z" transform="translate(0 0)"/><path class="cls-1" d="M29.5,31Z" transform="translate(0 0)"/><path class="cls-1" d="M73.5,1.7h.3C73.7,1.7,73.6,1.8,73.5,1.7Z" transform="translate(0 0)"/><path class="cls-1" d="M72.4,1h.3a.2.2,0,0,1-.3,0Z" transform="translate(0 0)"/><path class="cls-1" d="M69.5,1.4l.2.2C69.5,1.5,69.5,1.5,69.5,1.4Z" transform="translate(0 0)"/><path class="cls-1" d="M20,31.7l.2.2C20,31.9,20,31.8,20,31.7Z" transform="translate(0 0)"/><path class="cls-1" d="M30.9,31c-.1,0-.1,0-.1-.1h.1Z" transform="translate(0 0)"/><path class="cls-1" d="M29.1,31.7c-.1-.1-.2-.1-.1-.2h.1C29.2,31.6,29.2,31.6,29.1,31.7Z" transform="translate(0 0)"/><path class="cls-1" d="M19.5,31.7l-.3-.2h.1Z" transform="translate(0 0)"/><path class="cls-1" d="M72.1,1l.2.3H72Z" transform="translate(0 0)"/><path class="cls-1" d="M67.3,1.2h-.2c.1-.2.2-.1.2-.1Z" transform="translate(0 0)"/><path class="cls-1" d="M72,1.2h.2v.2Z" transform="translate(0 0)"/><path class="cls-1" d="M28.5,31.2c0,.1,0,.1-.1.1s-.1,0-.1-.1Z" transform="translate(0 0)"/><path class="cls-1" d="M68.3,1.7V1.5h0c.1,0,.1,0,.1.1s0,.1,0,.1Z" transform="translate(0 0)"/><path class="cls-1" d="M70.6,1.1Z" transform="translate(0 0)"/><path class="cls-1" d="M72.7.4Z" transform="translate(0 0)"/><path class="cls-1" d="M21.1,32.5l.2-.2C21.3,32.5,21.2,32.5,21.1,32.5Z" transform="translate(0 0)"/><path class="cls-1" d="M6.8,2.4H6.6C6.7,2.3,6.8,2.3,6.8,2.4Z" transform="translate(0 0)"/><path class="cls-1" d="M6.4,30.7Z" transform="translate(0 0)"/><path class="cls-1" d="M26.4,32.5Z" transform="translate(0 0)"/><path class="cls-1" d="M18.3,31.1v-.2h.1Z" transform="translate(0 0)"/><path class="cls-1" d="M66.5,1.8Z" transform="translate(0 0)"/><path class="cls-1" d="M31.2,30.9h0Z" transform="translate(0 0)"/><path class="cls-1" d="M19.6,31.2l-.2-.2h.2Z" transform="translate(0 0)"/><path class="cls-1" d="M30.6,31.1Z" transform="translate(0 0)"/><path class="cls-1" d="M26.4,31.3v-.2h.1v.2Z" transform="translate(0 0)"/><path class="cls-1" d="M74.2,1.6h-.3C74.1,1.5,74.1,1.5,74.2,1.6Z" transform="translate(0 0)"/><path class="cls-1" d="M25.5,32.1h0Z" transform="translate(0 0)"/><path class="cls-1" d="M19.9,31.3v.2h-.1Z" transform="translate(0 0)"/><path class="cls-1" d="M73.7,1.3Z" transform="translate(0 0)"/><path class="cls-1" d="M3.3,4.5Z" transform="translate(0 0)"/><path class="cls-1" d="M68.4,1.1Z" transform="translate(0 0)"/><path class="cls-1" d="M68,1.2Z" transform="translate(0 0)"/><path class="cls-1" d="M23,1.6c0-.1,0-.1.1-.1H23Z" transform="translate(0 0)"/><path class="cls-1" d="M65.4.9Z" transform="translate(0 0)"/><path class="cls-1" d="M27.4,32.2V32h0C27.3,32.1,27.3,32.2,27.4,32.2Z" transform="translate(0 0)"/><path class="cls-1" d="M71,.8Z" transform="translate(0 0)"/><path class="cls-1" d="M24.8,32.2Z" transform="translate(0 0)"/><path class="cls-1" d="M22.7,31.2Z" transform="translate(0 0)"/><path class="cls-1" d="M70.2.7Z" transform="translate(0 0)"/><path class="cls-1" d="M66.7,1.7Z" transform="translate(0 0)"/><path class="cls-1" d="M8.3,2.7c-.1,0-.1,0-.1-.1h.1Z" transform="translate(0 0)"/><path class="cls-1" d="M69.8.3Z" transform="translate(0 0)"/><path class="cls-1" d="M39.6,30.9h.5v.2c.2.1.2-.2.4-.1s.3-.2.5,0a.2.2,0,0,1-.2.2h-.3l-.5.5v-.2h-.4C39.4,31.2,39.9,31.2,39.6,30.9Z" transform="translate(0 0)"/><path class="cls-1" d="M98.9,32.3h-.8V32c0-.2.2-.2.4-.1Z" transform="translate(0 0)"/><path class="cls-1" d="M100.9,32.6c-.1,0-.1-.1-.2-.2s0-.3.2-.3a.2.2,0,0,1,.3,0h0c.1.1.2.2,0,.3Z" transform="translate(0 0)"/><path class="cls-1" d="M123.4,10.1a.6.6,0,0,1,0,.6c0,.1.1.2.1.3s-.2.4-.7.4.4-.3.3-.4l.2-.4a.4.4,0,0,0-.1-.3C123.2,10.2,123.3,10.2,123.4,10.1Z" transform="translate(0 0)"/><path class="cls-1" d="M123.8,16.2l.4-.3v.2c0,.1-.1.3,0,.4s-.1.1-.2.1S124.1,16.3,123.8,16.2Z" transform="translate(0 0)"/><path class="cls-1" d="M124.3,21.6v.5h-.5C123.8,21.7,124.1,21.8,124.3,21.6Z" transform="translate(0 0)"/><path class="cls-1" d="M124,9.7l.3.4h-.2l-.2-.2c-.1-.1,0-.2,0-.3Z" transform="translate(0 0)"/><path class="cls-1" d="M95.9,32c-.2,0-.3-.1-.3-.2l.3-.2.2.3C96.1,32,96,32,95.9,32Z" transform="translate(0 0)"/><path class="cls-1" d="M75.2,31.4c-.2-.3-.2-.4.1-.6A1.3,1.3,0,0,1,75.2,31.4Z" transform="translate(0 0)"/><path class="cls-1" d="M101.8,31l-.4.2c-.1-.1-.1-.1-.1-.2s.1-.2.2-.1Z" transform="translate(0 0)"/><path class="cls-1" d="M98.7,30.9c0-.2.1-.2.2-.2s.2,0,.2.1a.2.2,0,0,1-.2.2Z" transform="translate(0 0)"/><path class="cls-1" d="M122.3,18.9a.5.5,0,0,1,.1-.6h.1A1.4,1.4,0,0,1,122.3,18.9Z" transform="translate(0 0)"/><path class="cls-1" d="M122.9,12l.3-.5C123.4,11.8,123.3,11.9,122.9,12Z" transform="translate(0 0)"/><path class="cls-1" d="M123.8,12l.4.3h0a.5.5,0,0,1-.5-.3Z" transform="translate(0 0)"/><path class="cls-1" d="M100.6,30.6h.2a.2.2,0,0,1-.2.2h-.1C100.5,30.7,100.6,30.7,100.6,30.6Z" transform="translate(0 0)"/><path class="cls-1" d="M123.8,13.8c.2.2.2.2.1.5Z" transform="translate(0 0)"/><path class="cls-1" d="M122.9,13.5c.1.1.4.1.4.3l-.5-.3Z" transform="translate(0 0)"/><path class="cls-1" d="M124,18.4v-.3h.2l.2.2Z" transform="translate(0 0)"/><path class="cls-1" d="M122.6,19.2l.6-.2A.7.7,0,0,1,122.6,19.2Z" transform="translate(0 0)"/><path class="cls-1" d="M100.1,31.8h.3C100.2,32,100.2,32,100.1,31.8Z" transform="translate(0 0)"/><path class="cls-1" d="M122.6,27.3V27h0c0,.1,0,.1.1.1Z" transform="translate(0 0)"/><path class="cls-1" d="M38.9,32.4h.3c0,.2-.1.3-.3.4v-.3Z" transform="translate(0 0)"/><path class="cls-1" d="M94.6,31.7h.2l-.2.2c0-.1-.1-.1-.1-.2Z" transform="translate(0 0)"/><path class="cls-1" d="M122.5,12.4c0-.1-.3-.2,0-.3a.2.2,0,0,1,0,.3Z" transform="translate(0 0)"/><path class="cls-1" d="M123.1,21.6l.3-.4h0l-.2.4Z" transform="translate(0 0)"/><path class="cls-1" d="M122.2,19.1c-.1.2,0,.4-.2.4S122,19.2,122.2,19.1Z" transform="translate(0 0)"/><path class="cls-1" d="M40.3,31.9h0Z" transform="translate(0 0)"/><path class="cls-1" d="M122.2,24.8v.4h-.1v-.4Z" transform="translate(0 0)"/><path class="cls-1" d="M38.9,32h.4c0,.1,0,.1-.1.1s-.3-.1-.3-.2Z" transform="translate(0 0)"/><path class="cls-1" d="M98,31.3h-.2c0-.1,0-.1.1-.1s.1,0,.1.1Z" transform="translate(0 0)"/><path class="cls-1" d="M122.2,21.3h0c.1.1.1.2-.1.2H122C122,21.4,122,21.3,122.2,21.3Z" transform="translate(0 0)"/><path class="cls-1" d="M104.8,31.1c0-.1,0-.1-.1-.1s0-.1.1-.1h.1C104.9,31,104.9,31,104.8,31.1Z" transform="translate(0 0)"/><path class="cls-1" d="M122.5,14.3V14C122.6,14.1,122.6,14.1,122.5,14.3Z" transform="translate(0 0)"/><path class="cls-1" d="M42,31.4h-.2l.2-.2Z" transform="translate(0 0)"/><path class="cls-1" d="M124.1,24.5c0,.1-.1.1-.2,0Z" transform="translate(0 0)"/><path class="cls-1" d="M113.3,32.5Z" transform="translate(0 0)"/><path class="cls-1" d="M118.1,31.5c-.1-.1,0-.2.1-.4S118.1,31.4,118.1,31.5Z" transform="translate(0 0)"/><path class="cls-1" d="M44.1,31.8l.2-.3h.1l-.2.2Z" transform="translate(0 0)"/><path class="cls-1" d="M122,13.6v-.3h.1v.3Z" transform="translate(0 0)"/><path class="cls-1" d="M42.3,31.8h.3l-.3.2h0Z" transform="translate(0 0)"/><path class="cls-1" d="M92.3,30.9c-.1,0-.1.1-.2,0Z" transform="translate(0 0)"/><path class="cls-1" d="M41.8,31.9c0,.1,0,.2-.2.2S41.7,31.9,41.8,31.9Z" transform="translate(0 0)"/><path class="cls-1" d="M122.8,14.7v-.4C122.9,14.4,122.9,14.4,122.8,14.7Z" transform="translate(0 0)"/><path class="cls-1" d="M123.6,23.9Z" transform="translate(0 0)"/><path class="cls-1" d="M121.8,14.1v-.3h.1v.3Z" transform="translate(0 0)"/><path class="cls-1" d="M102,32.5h-.2c.1,0,.1,0,.1-.1Z" transform="translate(0 0)"/><path class="cls-1" d="M102.4,30.8c0,.1,0,.2-.2.1Z" transform="translate(0 0)"/><path class="cls-1" d="M93.9,32.4Z" transform="translate(0 0)"/><path class="cls-1" d="M120.3,27.5v.2h-.1v-.2Z" transform="translate(0 0)"/><path class="cls-1" d="M123.9,20.5c-.1,0-.1,0-.1.1h-.1c0-.1,0-.1.1-.1Z" transform="translate(0 0)"/><path class="cls-1" d="M46.9,31.5l.2-.2C47.1,31.5,47.1,31.5,46.9,31.5Z" transform="translate(0 0)"/><path class="cls-1" d="M44.4,32.2h-.3l.2-.2Z" transform="translate(0 0)"/><path class="cls-1" d="M123.6,11.2v.2h0Z" transform="translate(0 0)"/><path class="cls-1" d="M85.2,31.1Z" transform="translate(0 0)"/><path class="cls-1" d="M43.9,32.5h.3C44.1,32.7,44,32.6,43.9,32.5Z" transform="translate(0 0)"/><path class="cls-1" d="M101.7,31.4Z" transform="translate(0 0)"/><path class="cls-1" d="M42,31.4v.2h-.2c0-.1.1-.1.1-.2Z" transform="translate(0 0)"/><path class="cls-1" d="M93.3,31.8Z" transform="translate(0 0)"/><path class="cls-1" d="M37.1,31.9s.2,0,.1.2l-.2-.2Z" transform="translate(0 0)"/><path class="cls-1" d="M101.4,31.7h0Z" transform="translate(0 0)"/><path class="cls-1" d="M120.5,28v.3C120.3,28.1,120.3,28.1,120.5,28Z" transform="translate(0 0)"/><path class="cls-1" d="M123.4,15.2l-.2.2C123.1,15.3,123.1,15.3,123.4,15.2Z" transform="translate(0 0)"/><path class="cls-1" d="M123.9,23.6Z" transform="translate(0 0)"/><path class="cls-1" d="M41.8,30.8h.1c-.1.1-.1.1-.1-.1Z" transform="translate(0 0)"/><path class="cls-1" d="M123.8,23.2Z" transform="translate(0 0)"/><path class="cls-1" d="M102.7,31h0Z" transform="translate(0 0)"/><path class="cls-1" d="M96.7,31.2Z" transform="translate(0 0)"/><path class="cls-1" d="M123,14.1h-.2C122.9,13.9,122.9,13.9,123,14.1Z" transform="translate(0 0)"/><path class="cls-1" d="M123.8,12.7Z" transform="translate(0 0)"/><path class="cls-1" d="M44.5,31.9h0Z" transform="translate(0 0)"/><path class="cls-1" d="M105.4,32.1Z" transform="translate(0 0)"/><path class="cls-1" d="M38.9,32.4c-.1,0-.2,0-.1-.1Z" transform="translate(0 0)"/><path class="cls-1" d="M92.5,32.5h-.1C92.5,32.4,92.5,32.4,92.5,32.5Z" transform="translate(0 0)"/><path class="cls-1" d="M124,24.3Z" transform="translate(0 0)"/><path class="cls-1" d="M93.9,1.9c-.2-.1-.1-.4-.2-.6V.9c0-.2.1-.3.2-.3a.5.5,0,0,1,.6.2h-.4a1.9,1.9,0,0,0,.2.7H94v.3Z" transform="translate(0 0)"/><path class="cls-1" d="M90.5.4c.3.1.2.3.1.4h-.2C90.4.7,90.5.5,90.5.4Z" transform="translate(0 0)"/><path class="cls-1" d="M95,.5v.6h-.2a.5.5,0,0,1,0-.5Z" transform="translate(0 0)"/><path class="cls-1" d="M95.3,2h-.1V1.7h.1c.1,0,.1,0,.1.1V2Z" transform="translate(0 0)"/><path class="cls-1" d="M116.3,1.4a.5.5,0,0,1-.2.4C116,1.6,116,1.6,116.3,1.4Z" transform="translate(0 0)"/><path class="cls-1" d="M99.3,1.7h0c.1,0,.1,0,.1.1Z" transform="translate(0 0)"/><path class="cls-1" d="M89.1.3a.4.4,0,0,1,.5.1A.4.4,0,0,1,89.1.3Z" transform="translate(0 0)"/><path class="cls-1" d="M90.5,1.5v.3Q90.2,1.7,90.5,1.5Z" transform="translate(0 0)"/><path class="cls-1" d="M102.1.2Z" transform="translate(0 0)"/><path class="cls-1" d="M89.7,1.6c-.1,0-.1-.1-.1-.2h.1C89.8,1.4,89.8,1.5,89.7,1.6Z" transform="translate(0 0)"/><path class="cls-1" d="M97.9.6Z" transform="translate(0 0)"/><path class="cls-1" d="M91.4,1h0Z" transform="translate(0 0)"/><path class="cls-1" d="M88.7,1.5Z" transform="translate(0 0)"/><path class="cls-1" d="M91.5.2Z" transform="translate(0 0)"/><path class="cls-1" d="M121.6,4.5h.1l.2.2-.2.5c0,.2-.1.3-.1.5s0-.3-.2-.4l-.2.2h0V5.2c0-.1,0-.1.1-.2s.2-.1.2-.2A.4.4,0,0,1,121.6,4.5Z" transform="translate(0 0)"/><path class="cls-1" d="M122,6.9l-.2-.2.3-.7C122.3,6.2,122.3,6.3,122,6.9Z" transform="translate(0 0)"/><path class="cls-1" d="M121.5,3.8a1.7,1.7,0,0,1,.1.7h-.2a.6.6,0,0,1,0-.6h.1Z" transform="translate(0 0)"/><path class="cls-1" d="M121.1,4.7a.4.4,0,0,1-.2.5h-.1Z" transform="translate(0 0)"/><path class="cls-1" d="M122.3,7.5c-.1-.3,0-.4.3-.4Z" transform="translate(0 0)"/><path class="cls-1" d="M121.5,3.8c.2-.1.3,0,.3.1a.4.4,0,0,1-.1.3Z" transform="translate(0 0)"/><path class="cls-1" d="M121.3,6.9V6.7c.2.1.2.1.2.3Z" transform="translate(0 0)"/><path class="cls-1" d="M122.2,7c-.1-.1-.1-.2.1-.3V7Z" transform="translate(0 0)"/><path class="cls-1" d="M122.2,7.7l-.2.2C122,7.7,122,7.7,122.2,7.7Z" transform="translate(0 0)"/><path class="cls-1" d="M122.7,4.9l-.2.2Z" transform="translate(0 0)"/><path class="cls-1" d="M121.9,4.1V3.8a.2.2,0,0,1,0,.3Z" transform="translate(0 0)"/><path class="cls-1" d="M122.7,4.5l-.2.3C122.4,4.6,122.6,4.6,122.7,4.5Z" transform="translate(0 0)"/><path class="cls-1" d="M121.7,8.3l.2-.2h.1C121.9,8.3,121.9,8.4,121.7,8.3Z" transform="translate(0 0)"/><path class="cls-1" d="M121.8,8Z" transform="translate(0 0)"/><path class="cls-1" d="M118.9,3.6c0-.1,0-.1-.1-.1a.6.6,0,0,0,.1-.4c-.1-.1,0-.1.1-.2h.1v.2C119.1,3.3,119,3.4,118.9,3.6Z" transform="translate(0 0)"/><path class="cls-1" d="M117.7,1.8V1.6h.1v.2Z" transform="translate(0 0)"/><path class="cls-1" d="M84.7,2c-.1-.1.1-.1.2-.2S84.9,2,84.7,2Z" transform="translate(0 0)"/><path class="cls-1" d="M83.1,2h.3C83.2,2.2,83.2,2.2,83.1,2Z" transform="translate(0 0)"/><path class="cls-1" d="M86.8,1.4c.1,0,.1.1,0,.1s-.2,0-.2-.1Z" transform="translate(0 0)"/><path class="cls-1" d="M86.9.4V.2h0Z" transform="translate(0 0)"/><path class="cls-1" d="M86.8,1.4l.2-.2C87.1,1.4,87.1,1.4,86.8,1.4Z" transform="translate(0 0)"/><path class="cls-1" d="M35.8,14.1c.2-1,1.1-3.7,2.2-7.3h1.6s.1,0,0,.1l-3,8.9a.1.1,0,0,1-.1.1H34.9a.1.1,0,0,1-.1-.1L31.6,6.8h1.7c1.3,3.8,2.2,6.4,2.4,7.4Z" transform="translate(0 0)"/><path class="cls-1" d="M41.6,12.7c0,1.1.6,1.8,2,1.8a3.2,3.2,0,0,0,1.6-.3c.1,0,.1,0,.1.1v1.1h-.1a3.7,3.7,0,0,1-2,.4c-2.4,0-3.2-1.7-3.2-3.5s1.1-3.6,3.1-3.6a2.7,2.7,0,0,1,2.7,2.9,3.1,3.1,0,0,1-.1.9H41.6Zm2.1-1.1h.6A1.4,1.4,0,0,0,43,10c-.9,0-1.3.7-1.4,1.6Z" transform="translate(0 0)"/><path class="cls-1" d="M48.6,9h.1c.1.2.1.5.2.8a2.6,2.6,0,0,1,1.9-1.1h.3v1.3H51a3,3,0,0,0-2.1.8v4.5c0,.1,0,.1-.1.1H47.5c-.1,0-.2,0-.2-.1V9.1h1.3Z" transform="translate(0 0)"/><path class="cls-1" d="M54.4,10.1c-.6,0-.8.4-.8.6s.2.5,1.1,1,2,1.1,2,2.1-1,2.1-2.5,2.1a4.2,4.2,0,0,1-2-.5c-.1,0-.1-.1-.1-.2V14h.1a4.4,4.4,0,0,0,2.1.7c.6,0,.8-.3.8-.6s-.2-.6-1.1-1-1.9-1.1-1.9-2.1a2.1,2.1,0,0,1,2.4-2.1,4,4,0,0,1,1.8.4v1.4h-.1A3.2,3.2,0,0,0,54.4,10.1Z" transform="translate(0 0)"/><path class="cls-1" d="M58,7.2a.8.8,0,0,1,.9-.9.8.8,0,0,1,.8.9.8.8,0,0,1-.9.9A.8.8,0,0,1,58,7.2Zm.1,1.9h1.6v6.6H58.2c-.1,0-.1,0-.1-.1Z" transform="translate(0 0)"/><path class="cls-1" d="M67.7,12.4a3.2,3.2,0,0,1-3.2,3.5,3.2,3.2,0,0,1-3.3-3.5,3.3,3.3,0,0,1,3.3-3.6C66.5,8.8,67.7,10.4,67.7,12.4Zm-4.8,0c0,1.4.5,2.3,1.6,2.3S66,14,66,12.4s-.4-2.3-1.6-2.3S62.9,10.9,62.9,12.4Z" transform="translate(0 0)"/><path class="cls-1" d="M69.3,10.6c0-.5-.1-1.2-.1-1.5h1.4c.1.1.1.4.1.5a3.2,3.2,0,0,1,2-.8c1,0,2.2.6,2.2,2.9v4H73.4a.1.1,0,0,1-.1-.1v-4c0-.9-.4-1.5-1.1-1.5a2.5,2.5,0,0,0-1.4.6v4.9c0,.1,0,.1-.1.1H69.4c-.1,0-.1,0-.1-.1Z" transform="translate(0 0)"/><path class="cls-1" d="M81.6,15.8a.1.1,0,0,1-.1-.1c-.5-1.3-1.8-5.2-2.3-6.6h1.7l1.6,5.4h0a54.7,54.7,0,0,1,1.6-5.4h1.5l-2.3,6.6a.1.1,0,0,1-.1.1Z" transform="translate(0 0)"/><path class="cls-1" d="M92.3,6.7h.1V7.8c-.7,1.7-2.3,5.7-3.3,7.9,0,.1,0,.1-.1.1H87.4a.1.1,0,0,1-.1-.1c2.6-5.8,3-6.9,3.4-7.7H86.5V6.7h5.8Z" transform="translate(0 0)"/><path class="cls-1" d="M33.2,25.2c0,.8.1,1.2.1,1.5s0,.1-.1.1H31.8v-.5a3.1,3.1,0,0,1-2,.7c-1.1,0-2.1-.6-2.1-2.5V20.1c0-.1,0-.1.1-.1h1.4a.1.1,0,0,1,.1.1v4c0,.9.3,1.5,1.1,1.5a1.6,1.6,0,0,0,1.2-.6V20.1c0-.1,0-.1.1-.1h1.4c.1,0,.1,0,.1.1Z" transform="translate(0 0)"/><path class="cls-1" d="M35.1,21.6a6.6,6.6,0,0,0-.1-1.5.1.1,0,0,1,.1-.1h1.2c.1,0,.2,0,.2.1s.1.4.1.5a3,3,0,0,1,2-.8c1,0,2.1.6,2.1,2.9v4a.1.1,0,0,1-.1.1H39.1v-4c0-.9-.3-1.5-1.1-1.5a2,2,0,0,0-1.3.6v4.9c0,.1,0,.1-.1.1H35.2c-.1,0-.1,0-.1-.1Z" transform="translate(0 0)"/><path class="cls-1" d="M42.5,18.2a.9.9,0,0,1,.9-.9.8.8,0,0,1,.9.9.9.9,0,1,1-1.8,0Zm.1,1.9a.1.1,0,0,1,.1-.1h1.4c.1,0,.1,0,.1.1v6.6a.1.1,0,0,1-.1.1H42.7a.1.1,0,0,1-.1-.1Z" transform="translate(0 0)"/><path class="cls-1" d="M45.8,23.5a3.6,3.6,0,0,1,3.8-3.7,6.2,6.2,0,0,1,2.2.4h0v9.3h-.1l-1.4.2h-.1V26.7a2.5,2.5,0,0,1-1.2.2A3.1,3.1,0,0,1,45.8,23.5Zm4.4-2.2-.7-.2a2.1,2.1,0,0,0-2.1,2.3,1.9,1.9,0,0,0,1.9,2.2l.9-.2Z" transform="translate(0 0)"/><path class="cls-1" d="M59.2,25.2c0,.8.1,1.2.1,1.5s0,.1-.1.1H57.8v-.5a3,3,0,0,1-1.9.7c-1.2,0-2.2-.6-2.2-2.5V20.1c0-.1,0-.1.1-.1h1.4c.1,0,.1,0,.1.1v4c0,.9.3,1.5,1.1,1.5a1.4,1.4,0,0,0,1.2-.6V20.1a.1.1,0,0,1,.1-.1h1.4c.1,0,.1,0,.1.1Z" transform="translate(0 0)"/><path class="cls-1" d="M62.4,23.7a1.8,1.8,0,0,0,2,1.8,3,3,0,0,0,1.6-.3c.1,0,.1,0,.1.1v1.1c0,.1,0,.1-.1.1a3.6,3.6,0,0,1-1.9.4c-2.4,0-3.3-1.7-3.3-3.5s1.1-3.6,3.1-3.6a2.7,2.7,0,0,1,2.7,2.9,3.1,3.1,0,0,1-.1.9H62.4Zm2.1-1.1c.5,0,.6,0,.6-.1h0A1.4,1.4,0,0,0,63.8,21c-.8,0-1.3.7-1.4,1.6Z" transform="translate(0 0)"/><path class="cls-1" d="M77.7,22.6v4.1c0,.1,0,.1-.1.1H76.1V22.6c0-.8-.3-1.4-1.1-1.4a2.5,2.5,0,0,0-1.3.6v4.9a.1.1,0,0,1-.1.1H72.3c-.1,0-.1,0-.1-.1V22.6c0-.9-.4-1.4-1.1-1.4a2.2,2.2,0,0,0-1.3.6v4.9H68.3a.1.1,0,0,1-.1-.1V21.5c0-.6-.1-1.1-.1-1.4s0-.1.1-.1h1.4a1.5,1.5,0,0,0,.1.6,2.6,2.6,0,0,1,1.9-.9,1.9,1.9,0,0,1,1.7,1,3.5,3.5,0,0,1,2.3-1C76.5,19.8,77.7,20.4,77.7,22.6Z" transform="translate(0 0)"/><path class="cls-1" d="M80.9,23.7c0,1.1.7,1.8,2,1.8a3,3,0,0,0,1.6-.3c.1,0,.1,0,.1.1v1.1c0,.1,0,.1-.1.1a3.6,3.6,0,0,1-1.9.4c-2.4,0-3.3-1.7-3.3-3.5s1.1-3.6,3.1-3.6a2.7,2.7,0,0,1,2.7,2.9,3.1,3.1,0,0,1-.1.9H80.9ZM83,22.6c.5,0,.6,0,.6-.1h0A1.4,1.4,0,0,0,82.3,21c-.8,0-1.3.7-1.4,1.6Z" transform="translate(0 0)"/><path class="cls-1" d="M86.7,21.6c0-.5-.1-1.2-.1-1.5s0-.1.1-.1h1.4v.5a3.2,3.2,0,0,1,2-.8c1,0,2.2.6,2.2,2.9v4H90.8a.1.1,0,0,1-.1-.1v-4c0-.9-.3-1.5-1.1-1.5a2.5,2.5,0,0,0-1.4.6v4.9c0,.1,0,.1-.1.1H86.8c-.1,0-.1,0-.1-.1Z" transform="translate(0 0)"/><path class="cls-1" d="M97.3,26.5c0,.1,0,.2-.1.2a2.2,2.2,0,0,1-1.2.2c-1.1,0-1.7-.5-1.7-1.9V21.3h-.9v-1c0-.1,0-.1.1-.1h.8a9.9,9.9,0,0,1,.2-1.8h.1l1.3-.2H96a13.4,13.4,0,0,0-.1,2.1h1.3c.1,0,.1,0,.1.1v1H95.9v3.4c0,.6.2.9.7.9h.6a.1.1,0,0,1,.1.1Z" transform="translate(0 0)"/></g></g></svg>