<svg id="Layer_1" data-name="Layer 1" xmlns="http://www.w3.org/2000/svg" width="137.9" height="32.8" viewBox="0 0 137.9 32.8"><defs><style>.cls-1{fill:#818181;}.cls-2{fill:#838383;}</style></defs><g id="Layer_2" data-name="Layer 2"><g id="Layer_1-2" data-name="Layer 1-2"><path class="cls-1" d="M33.5,32c.3.1.4.1.4.3a.4.4,0,0,0-.1.3h-.7v-.2l-.3-.2-.5.2.3.2H31.4c.3-.2.5-.1.8-.1l-.3-.3h-.6v.2c-.1,0-.2-.2-.4-.1v.3H28.5c0-.1-.1-.2-.3-.2h0c0-.1-.2,0-.3,0s0,.1.2.2H26v-.4c-.1.1-.2.3-.1.4H23.5l-.9-.3h-.1a.5.5,0,0,1,.4.2H14.5a34.4,34.4,0,0,1-4.6-.3,14.3,14.3,0,0,1-7-3.3A6.6,6.6,0,0,1,.8,26.6,8.5,8.5,0,0,1,0,23.1V10.7A2,2,0,0,1,.3,9.6a1.4,1.4,0,0,0,.1-.9H0A9.5,9.5,0,0,1,2.1,4.3a.6.6,0,0,1,0,.6C2,4.9,2,5,2.1,5h.2l.4-.6c0-.1-.2-.2-.2-.4A15,15,0,0,1,7.3,1v.5c.2,0,.2-.1.2-.1V1.1c0-.2.1-.2.4-.2v.4H8L8.4,1A.5.5,0,0,1,8.7.5h.9V.8c0,.1.1.3-.1.4s-.1.2-.1.3l.3-.2.4-.4.3-.5A9.9,9.9,0,0,1,12.8.1h0c.2.1,0,.3.3.3s.1-.2.1-.2h4.5c.1.1-.1.4.3.5V.1h2.6l.4.2,1-.2H74.1V.3h.2c.1.1.1.3.4.2s-.2-.1-.2-.2.1-.1.1-.3h4.2V.3h.4l-.4.2h.5c0,.3-.5.5-.2.8s.2-.4.6-.4h-.1l.2-.5a.5.5,0,0,1,.6.2V0h.2a.6.6,0,0,1,.1.4V.9c.2.2.5.1.8,0L81.1.5c.2-.2.5-.1.7-.2h.7a1.4,1.4,0,0,1,.2.6H83a.8.8,0,0,1,.2-.4l.2-.3.2.2c.1,0,.2-.1.1-.3H84c0,.1-.1.2-.1.4s-.1.1-.1.2,0,.1-.1.1h-.1c-.1-.1-.2.1-.3.1h.1l-.2.2h-.3v.2h-.1L82.6.8l-.3.2c0,.2-.1.4-.1.6s-.2-.1-.4,0h.4c-.2,0-.2.1-.2.2s.2.1.2.2h-.5l-.6.4L80.8,2c-.1.2-.3.3-.5.1h-.5c-.3-.1-.3-.1-.4.1s-.7.1-.9-.1h-.4c0-.2.2-.3.3-.4h.9c0-.1,0-.2-.4-.2h-.4v.3h-.2c-.1-.2-.2-.2-.5-.1h-.3V2H75.3c-.1,0-.2,0-.2-.1h-.4a1.7,1.7,0,0,1-1,0H71.5l.4-.5h0l-.7-.2-.2.5c0,.2,0,.2-.5.2H24.1V1.6c-.3.2-.1.4-.2.6H14.5a1.3,1.3,0,0,1,.1-.6V1.1c.1-.1,0-.2-.2-.3s-.3.2-.3.4a1.7,1.7,0,0,1,0,1H11.3l-1,.2h-.1L9.9,2c-.4,0-.3.2-.5.2a.4.4,0,0,1,.1.3q0,.2-.3.3l-1,.4-.3-.3c0,.5-.5.6-.8.8s.2-.5,0-.7-.2.2-.3.3a.5.5,0,0,0,0,.5l-.5.3H6c.1.2-.1.3-.2.5A5.3,5.3,0,0,0,3.2,8.5c0,.3-.1.6-.1.9V23.6c.2,2.9,2.2,5.1,6.1,6.4l.7.2a19.7,19.7,0,0,0,3.5.4H25.9c.1.1.1.3.2.4l.5.2c.2,0-.2-.4-.2-.6h3.7l-.2.3h.4c.1.2-.1.5.5.4V31l.5-.4h.1c0,.2-.1.3.3.4h.2v-.4h1.5a.8.8,0,0,1,.7.1h1a.4.4,0,0,0,.1.3c0,.1.1.2.1.3v.2h-.1l-.2-.2-.7.4v.2c.2.1.2.1-.1.3s-.1-.2-.1-.3l-.2-.2h.2l-.4-.3v.4l-.5-.3c-.1.2-.1.4-.2.6h.1c.1,0,.1,0,.1.1s.1.4.3.4l-.3-.4h.5c-.2,0-.2,0-.2-.1ZM79.7,1.2l.2.2V1.2h.4V.9h-.4ZM31.6,31.8v-.2c0-.1,0-.1-.2-.1h-.1c0,.1.1.2.3.1h0c.2.1.2.3.4.4s.2-.2,0-.3Zm-2.5.4c.1,0,.2-.1.1-.1s0-.1-.2-.2v.2c-.2,0,0-.2-.2-.3s-.3.2-.2.3l.6.3ZM77.3,1l-.2.2.3.2V1c.1,0,.3,0,.3-.2s-.2-.1-.3-.2-.3,0-.4.1l.2.3ZM16.9,1h.3c0-.2-.1-.4-.1-.6L16.8.2h-.3V.9c.1.2.1.4.3.5S16.8,1.2,16.9,1ZM32.2,30.9c.1.2,0,.5.2.7s-.2.2,0,.4.4-.2.5-.2,0-.1-.1-.2ZM2.2,11.5c.3-.4.5-.7.2-.9H2.2A1.4,1.4,0,0,0,2.2,11.5ZM75.7.1c-.2.2-.2.4-.1.4H76C76.2.3,76.1.2,75.7.1ZM23.3,32.2h.1l.4-.2c-.1-.2-.2-.3-.4-.2ZM76.2,2.1c.1-.2-.1-.3-.2-.4h-.2C75.8,2,75.8,2.1,76.2,2.1ZM75.8.7l.4.2h-.4ZM2,12H2a.5.5,0,0,0-.2.4H2A.3.3,0,0,0,2,12ZM23.6,31c.1.2.1.4.4.3S24,31.1,23.6,31Zm-4.4.9c0-.2-.2-.3-.5-.3S18.9,31.9,19.2,31.9ZM18.4,1.4h0c0-.1,0-.2-.1-.2s-.1.1-.1.2S18.2,1.5,18.4,1.4Zm8.4,29.9.2.2v-.2c0-.1-.2-.1-.3,0ZM81.3,2V1.7h-.6Zm.5-1c.2-.2.2-.3-.1-.4Zm-5.2.3h.1L76.5,1h.1ZM7.9,2.1c.3-.1.3-.2.1-.4s-.2.2-.1.3Zm8,29.5h.2l-.5-.2c.1.1.1.3.3.3Zm10.1.1h-.1l.3.2H26Zm4-.4h.1c.1-.1.1-.2-.1-.4ZM1.4,9.1H1.3c-.1,0-.1.1-.1.2h.2Zm76-7.3H77C77.2,2,77.3,2,77.4,1.8ZM22.9,1.1c0-.1,0-.1-.1-.1h.1ZM29,31h-.4l.2.2ZM78.2.3h-.4C78.1.5,78.1.5,78.2.3ZM13,1h-.2c0,.1.1.2.2.3ZM34.8,31H35c.1,0,.1,0,.1-.1h-.3ZM8.4,1.7h.1c.1-.1.1-.1-.1-.2ZM27.5,32.6h.1v-.2C27.2,32.5,27.3,32.6,27.5,32.6ZM80.4,1.7h-.2c0,.2.1.2.2.2ZM28.3,31.6c-.1-.2-.1-.2-.4-.2ZM78.2,1.4c-.1-.1-.2-.1-.4.1S78.2,1.5,78.2,1.4Zm3-.2v.2h0ZM29.6,30.6c-.3.1-.3.1-.1.3ZM11,2.2h.2C11,2,11,2,11,2.2Zm70.4-.5c.1.1.2,0,.3,0ZM77,1.4c0,.1,0,.1.2.2ZM22.1,31.7c0,.1,0,.2.3.2Zm10.1,0c.1-.1.1-.1,0-.2h-.1C32,31.6,32.1,31.6,32.2,31.7Zm-10.6,0h0l-.2-.2h-.1ZM74.5,1.2h0s-.1-.1-.2.1Zm-42.9,30h-.3c0,.1,0,.1.1.1S31.6,31.3,31.6,31.2Zm44-29.5h0s.1-.1,0-.1,0-.1-.1-.1h0ZM23.4,32.5c.1,0,.2,0,.2-.2ZM7.5,2.4c0-.1-.1-.1-.2-.1h.2Zm27,28.5c-.1,0-.1,0-.1.1h.1Zm-5.3.4h.1v-.2h-.1Zm-1,.8c.1,0,.1,0,.1-.1h-.1Zm2.1.1c0-.1,0-.1.1-.1h-.2C30.3,32.1,30.3,32.1,30.3,32.2ZM73.9,1.7H74c-.1,0-.1,0-.1.1Z"/><path class="cls-1" d="M137.5,14.6a.4.4,0,0,1,.2.5v.4h-.4l.2.2c.2.1.2.2.2.4a2.8,2.8,0,0,1,0,1.8v2.7h-.3v.2h.2v1.6h-.3l.3.2c.1,0,.3.1.1.2v.9h-.4l.4.2a3.2,3.2,0,0,1-.3,1.4c0,.2-.1.3-.2.5a6.9,6.9,0,0,1-1,1.9,10.8,10.8,0,0,1-3,2.6l-1.3.7v-.2c-.1.4-.6.5-.9.7h-.1c0-.1.2-.2.1-.4s-.2.3-.1.4a4.8,4.8,0,0,1-2,.7l-3.1.5H111.7l.4-.2c.2-.1.1-.2,0-.3a.3.3,0,0,0-.4,0h0c-.2,0-.2.2-.2.3a.2.2,0,0,0,.2.2,1.3,1.3,0,0,1-.9.1c-.1-.1.1-.3-.1-.4s-.1-.2-.3-.1.1.3,0,.5H53.1c-.1.1-.3,0-.5-.1h-.3a1.4,1.4,0,0,1-.9.1H45.6v-.2c-.2-.1-.4-.1-.5.1l.3-.6h.3c-.1-.2-.3-.4,0-.6a.5.5,0,0,0-.5.3l-.4.8h-.1c-.3,0-.6-.2-1,0s.1-.3.3-.3h.4c.3-.1.3-.1.3-.3h-.2c.1,0,.2-.1.1-.2s-.2,0-.2.1h-.1l-.5.2v.2l-.3.4h-.3l-.2-.2v.2h-.3c-.2.1-.4.2-.6,0a.9.9,0,0,1-.7.1c-.1-.2.1-.3.1-.5s-.2.1-.3.2h0v-.3h-.5c-.2-.2-.1-.3,0-.5l.2-.4v-.4h.3c.1-.1.2-.1.2-.2h.3l.3.4c-.3,0-.3-.1-.3-.1s-.2-.2-.3-.1h0c-.1,0-.1.1,0,.2s-.1.3-.2.4v-.3c-.2.2-.3.3-.2.5h.5l.2-.3c.2.1.3.2.2.3s-.3.2-.3.3h.5l.3-.3v-.2c0-.1.1-.1.1-.2a.6.6,0,0,1-.3.8H42v.4h.4v-.4h.3l.3-.2c0,.1.1.2.3.2s.1,0,.1-.1H43c0-.1,0-.1.1-.1s.4,0,.5-.2-.3-.3-.6-.1l.6-1h.8a2.4,2.4,0,0,1,1.2,0v.5l.6-.3c0,.2,0,.2.1.1h-.1c.1-.2.3,0,.5,0v.3c.4-.1.4-.3.5-.5h49a.6.6,0,0,1,.7.2c.1-.2.3-.2.5-.2h6.5l.3.2.3-.2h9.9c.2-.1.4,0,.6.2s.3-.2.5-.2h3.8c.2,0,.3-.1.4.1s.2.1.3,0h2.5a28.8,28.8,0,0,0,4.1-.2,12.1,12.1,0,0,0,5.8-2.5,6.2,6.2,0,0,0,1.6-2,5.4,5.4,0,0,0,.6-2.5V22.5c.2-.1-.1-.1-.1-.2V19.2c-.1-.1,0-.3.3-.3h0c-.3-.1-.3-.1-.3-.3V17a.4.4,0,0,1,.1-.5c.2-.1.2-.2-.1-.2V16h.3a.5.5,0,0,0,0-.5l-.3.4v-3l.4-.2h0v-.2c0-.1,0-.2.1-.2a.4.4,0,0,0,.1-.3c-.1-.1,0-.2.1-.3a2.4,2.4,0,0,0,.6-1.1c0-.2.1-.3.2-.5a1,1,0,0,1,.4-.5V10h.1a1.8,1.8,0,0,1,.5-.7c.1-.2.3-.2.5,0h0a2.9,2.9,0,0,1,0,1.3h0v.8c-.1.3-.1.7-.2,1.1h.1c.2.1.1.3.1.4a1.2,1.2,0,0,1-.2,1v.7Zm-91,16.8v.2h.2v-.4Zm-3.4,1H43c-.1.1,0,.1.1.1v.3c.2-.1.3-.2.3-.4Zm.7-1.5c.4.3-.2.3-.2.5h.5v.2l.5-.5H45a.2.2,0,0,0,.2-.2h0c-.2-.2-.4.1-.6,0s-.2.2-.4.1v-.2Zm65.7,1.4-.4-.4c-.3-.1-.5-.1-.5.1v.2h.9Zm27.1-22.2c-.1.1-.2.1-.2.2a.4.4,0,0,1,.1.3l-.2.4c.1.1,0,.2-.3.4s.4-.4.7-.4-.1-.2-.1-.3A.4.4,0,0,0,136.6,10.1Zm.5,6.1c.3.1,0,.3.2.4s.2,0,.2-.1v-.6Zm.5,5.4c-.2.2-.5.1-.6.4h.5Zm-.3-11.9h-.1c0,.1-.1.2,0,.3l.2.2h.2l-.3-.4ZM106.2,32c.1,0,.2,0,.2-.1h0l-.2-.3-.3.2C105.9,31.9,106,32,106.2,32Zm-22.9-.6a1.3,1.3,0,0,0,.1-.6C83,31,83,31.1,83.3,31.4Zm29.4-.4h-.3c-.1-.1-.3,0-.2.1v.2Zm-3.4-.1h.2a.2.2,0,0,0,.2-.2h-.2C109.4,30.6,109.3,30.7,109.3,30.9Zm26.1-12a1.4,1.4,0,0,0,.2-.6.4.4,0,0,0-.2.5Zm.7-6.9c.4-.1.5-.2.3-.5Zm1,0H137a.5.5,0,0,0,.5.3h0ZM111.4,30.6c0,.1-.1.1-.1.2h.1l.2-.2Zm25.7-16.8v.5C137.3,14,137.3,14,137.1,13.8Zm-1-.3H136l.5.3C136.5,13.6,136.2,13.6,136.1,13.5Zm1.2,4.9h.3l-.2-.2h-.2Zm-1.6.8a.8.8,0,0,0,.7-.2ZM110.8,31.8c.1.2.1.2.4,0Zm24.9-4.5.3-.2c-.1,0-.1,0-.1-.1h0Zm-31,4.4h-.1c0,.1.1.1.1.2l.3-.2Zm30.9-19.3a.4.4,0,0,0,.1-.3h-.1C135.3,12.2,135.6,12.3,135.6,12.4Zm.7,9.2h.1l.2-.4h0Zm-1-2.5c-.2.1-.2.2-.2.4S135.2,19.3,135.3,19.1Zm0,5.7h0v.4h.1Zm-26.8,6.5c0-.1,0-.1-.1-.1s-.1,0-.1.1Zm26.8-10c-.2,0-.2.1-.2.2h.1C135.4,21.5,135.4,21.4,135.3,21.3ZM116,31.1c.1-.1.1-.1.1-.2H116c-.1,0-.1,0-.1.1S116,31,116,31.1Zm19.6-16.8c.1-.2.1-.2,0-.3Zm1.8,10.2h-.2C137.3,24.6,137.4,24.6,137.4,24.5ZM48.8,31.8h.1l.3-.2h-.1Zm86.3-18.2h.1v-.3h-.1ZM46.8,31.8V32h0l.4-.2Zm55.4-.9H102C102.1,31,102.1,30.9,102.2,30.9Zm-55.9,1c-.1,0-.3.1-.2.2S46.3,32,46.3,31.9ZM136,14.7c.1-.3.1-.3,0-.4Zm-1.1-.6h.1v-.3h-.1Zm-22,18.4h-.1c0,.1,0,.1-.1.1h.2Zm.5-1.7h-.2C113.4,31,113.4,30.9,113.4,30.8Zm19.8-3.3h0v.2h.1Zm4-7c-.1,0-.1,0-.1-.1s-.1,0-.1.1Zm-85.3,11c.3,0,.3,0,.3-.2Zm-2.7.7h-.1l-.3.2Zm-.6.3c.1.1.2.2.3,0Zm-7.5-.6H41l.2.2C41.3,31.9,41.1,31.9,41.1,31.9Zm71.2-.2h0c-.1,0-.1,0-.1.1ZM133.4,28c-.2.1-.2.1-.1.3Zm3.2-12.8c-.3.1-.3.1-.2.2ZM113.7,31c-.1,0-.1,0-.1.1h.1Zm22.5-16.9c-.1-.2-.1-.2-.2-.1ZM49.3,31.9h-.2c-.2,0-.2,0-.2.1h.4Z"/><path class="cls-1" d="M96.7,2.1c.2-.3.6-.5.6-.8s.2-.2.4-.3V.7h.1c-.1-.2-.1-.3.2-.4h11.8l.4.4c.2-.1,0-.2.2-.3h14.1l3.1.4,1.1.2-.4.5h.1a.9.9,0,0,0,.6-.6c.2,0,.1.2.2.2v.3h.2v.3c.4-.1.4-.4.7-.5s-.1.3-.1.4l-.3.4c-.3.1,0,.3-.3.4s0,.4-.3.8L127,2.7a9.7,9.7,0,0,0-2.4-.2H101.9c-.1-.3.2-.7-.3-.9s-.3.2-.3.4v.5H99.9c-.1,0-.1-.1-.2-.2l-.6.2H96.8c-.1,0-.1,0-.1-.1Zm7.3-.2h.1V1.6h.3a1.9,1.9,0,0,1-.2-.7h.4a.5.5,0,0,0-.6-.2.3.3,0,0,0-.3.3v.4c.2.2,0,.5.3.6ZM100.2.4c0,.1-.1.3-.1.4h.2C100.4.7,100.5.5,100.2.4Zm5,.1h-.1a.5.5,0,0,0,0,.5h.2Zm.3,1.5h.1V1.8c0-.1,0-.1-.1-.1h-.1v.2Zm23.3-.6c-.4.2-.4.2-.2.4A.5.5,0,0,0,128.8,1.4ZM98.7.3a.4.4,0,0,0,.5.1C99.1.3,98.8.2,98.7.3Zm1.5,1.2q-.3.2,0,.3Zm-.9.1c.1-.1.1-.2,0-.2h-.1C99.2,1.5,99.2,1.6,99.3,1.6Zm1.9-.6H101c0,.1,0,.1.1.1Z"/><path class="cls-1" d="M135.4,7.8a.5.5,0,0,1-.1.6c-.1,0-.1.2-.2.3h.6a1,1,0,0,0-.5.8,1,1,0,0,1-.6.5c-.1-.2,0-.3.2-.4a.8.8,0,0,0,.2-.5h-.4a4.3,4.3,0,0,0-.6-2.2,8.3,8.3,0,0,0-.8-1.2c-.1-.3-.2-.5,0-.7l.3-.2V4.6h.3l.4-1.5.2.2h-.2l.2.2.4-.2,1.1,1.1c-.2.1-.4.1-.3.3l.3-.3c.2.1,0,.3.1.5h.2c-.1.1.1.3-.1.4s0,.2-.1.4-.1.1-.3.2h-.1a.7.7,0,0,1,.1.6h.3l.3.2-.6.3c.2.3.2.3-.3.4h0Zm-.9-4h0a.5.5,0,0,0-.1.7h.2c-.1.1-.2.2-.1.3s0,.2-.2.2-.1.1-.1.2v.3h0l.2-.2c.2.1-.1.3.2.4s.2-.3.2-.5l.2-.5-.2-.2h-.2a.9.9,0,0,0-.1-.7l.3.4c0-.1.1-.2.1-.3S134.8,3.7,134.5,3.8Zm.6,3.1c.3-.6.3-.7.1-.9l-.3.7Zm-1-2.2-.3.5a.4.4,0,0,0,.4-.4h-.1Zm1.3,2.8.3-.4C135.4,7.1,135.3,7.2,135.4,7.5Zm-1.1-.6h.3c0-.2,0-.2-.2-.3Zm1,.1h.1V6.7C135.2,6.8,135.2,6.9,135.3,7Zm0,.7c-.2,0-.2,0-.2.2Zm.6-2.8-.3.2Zm-.9-.8a.2.2,0,0,0,0-.3h0Zm-.2,4.2c.2.1.2,0,.3-.1h-.3Z"/><path class="cls-1" d="M132.3,3.9v.7l-.5-.4c.1-.1.1-.2.1-.4s.1-.2-.1-.2.2-.3.2-.5V2.9h-.2c-.1.1-.3.1-.1.2a.8.8,0,0,1-.2.4c.2,0,.2,0,.2.1l-.3.5-.6-.4-.6-.3-.8-.3c.1-.1.1-.1.1-.2s.3-.3.2-.5-.2-.2,0-.2l.6-1h.2v.3h.2V1.2l1.4.6V2c-.2.1-.2.1-.1.3h.1c.3-.1,0-.4.3-.5s.2.2.1.4a1.4,1.4,0,0,0-.2.6c-.1.1-.1.3-.2.5s0,.1.1.2h0c-.1.2-.3.3-.1.5Zm-2-2.1h.1V1.6h-.1Z"/><path class="cls-1" d="M92,2a.8.8,0,0,0,.2-.8h.6v.3H93v.2c0,.1-.1.2-.1.3l.9-.2c-.1-.2-.2-.2-.5-.1s.7-.4.4-.7.5,0,.4.1.2.2.2.3h.3c.1-.1,0-.3,0-.3a.8.8,0,0,1-.2-.4h.3V.5l.4-.2h-.8a.4.4,0,0,1,.5.1h.3c0,.1,0,.2-.2.3s-.1.2-.1.2a1.7,1.7,0,0,1,.1.7h-.1c0,.1.1.2.3.2s0-.6.1-.9a1.4,1.4,0,0,0,.1-.9h-.1c-.1.2,0,.3-.1.5a.4.4,0,0,1-.1.3c.2.1.2.3.1.5h0c.1,0,.1.1.1.2h.5c0-.1-.1-.2,0-.2s.1-.4.2-.7A1.3,1.3,0,0,0,96,0h1.2V.4c-.5.3-.4.6-.4,1s-.5,0-.4.2l-.2.2.4.3h-.9v.2H93.8V2c.2,0,.2,0,.2-.2s-.3.1-.2.2-.2,0-.2.1H92c.1.2.1.2.3,0Zm4.1-.6h-.2c0,.1.1.1.2.1s.1-.1,0-.1.3,0,.2-.2Z"/><path class="cls-1" d="M132.2,3.6l.3-.3c-.2-.2.1-.4.3-.6l.3-.4h.3l-.4.5h0l.5-.4c.1,0,.1.1.1.2s-.1.1-.2.2,0,.2.2.2l.4-.4c.1.2-.1.4-.5.7a1.7,1.7,0,0,1-.2,1.2V4.2h-.1l-.3.7c0-.1,0-.1-.1-.2l.3-.5a.7.7,0,0,0,0-.9c-.2.1-.4.3-.3.5a1.4,1.4,0,0,1-.2.6c0,.2,0,.3-.2.4s-.1-.1,0-.2.2-.3.1-.5.1-.2.1-.3h-.3c.1-.1.1-.3-.1-.3Z"/><path class="cls-1" d="M136,9.8c-.1-.3.1-.5.3-.8h-.1l-.6.2a2,2,0,0,0,.7-1.6c.1.1.1.1.1.4s-.2.2.1.3.1-.2.1-.3V7.5l.4-.3v.4c0,.1-.2.2,0,.3s0,.1-.2.2-.2.4,0,.5h.2c.1.1,0,.2-.3.2v.4h-.3l-.2.2-.2.2Z"/><path class="cls-1" d="M135.9,9.8l-.3.4c-.1.2-.2.3-.2.5V11l-.4.7-.2.2c-.2-.2-.3-.4,0-.6s.1-.2.1-.3h-.3a1.1,1.1,0,0,1,.2-.8c.2,0,.1.1.1.2v.3l.3-.3a.5.5,0,0,1,.2-.4c.2-.1.2-.2.2-.4Z"/><path class="cls-1" d="M38.1,31h-.5a.8.8,0,0,0-.2.5h0c-.1-.2-.3-.5,0-.6s-.1-.2-.3-.2-.2-.2-.4-.1l.3-.3h.2v.2l.7-.2V31Z"/><path class="cls-1" d="M92.8,1.2c.1-.1.1-.1-.1-.2s-.4-.1-.2-.4H93c.1-.1,0-.2.1-.4l-.3.2V0h.5c-.2.2,0,.3-.2.4s-.2.3-.1.5,0,.2-.2.2Z"/><path class="cls-1" d="M35.1,32.4v.2H35c-.1-.1-.2-.2,0-.4h.3v-.4h.2l-.2.6c.1,0,.4.1.2.2S35.2,32.5,35.1,32.4Z"/><path class="cls-1" d="M82.2,2H83l.4.2.3-.2.2.2c-.4.2-.7,0-1.1-.1s-.3.2-.5.2,0-.2-.1-.2Z"/><path class="cls-1" d="M137.5,8.3l.2.2c-.2.1-.1.3-.1.5h0l-.3-.3c-.1,0,0,.3-.3.2S137.3,8.5,137.5,8.3Z"/><path class="cls-1" d="M37.2,31.8c-.2.2-.4.3-.1.5l-.2.2h-.1c.1-.1.1-.1.1-.2s-.1.2-.5.2.1-.3.3-.4S36.8,31.8,37.2,31.8Z"/><path class="cls-1" d="M84.4,1.8h.2c.1-.1.3-.2.3-.4h.2v.2c.3.2.3.2-.1.2Z"/><path class="cls-1" d="M36.2,31.2c-.2.1-.4.1-.2.3s-.2,0-.2.1v-.5S36.1,30.9,36.2,31.2Z"/><path class="cls-1" d="M43.3,30.7c-.6,0-.3.3-.4.5s0-.4,0-.6h.4Z"/><path class="cls-1" d="M132.2,3.6c.2,0,.2.2.1.3h0l-.2.2C131.9,3.9,132.1,3.8,132.2,3.6Z"/><path class="cls-1" d="M136.2,6.4c-.2-.2,0-.4,0-.6S136.4,6.1,136.2,6.4Z"/><path class="cls-1" d="M92,1.4h-.5V1.1l.7.2Z"/><path class="cls-1" d="M84.7.7c.2-.1.2-.1.2-.4s.2,0,.2.1V.7C85,.8,84.9.8,84.7.7Z"/><path class="cls-1" d="M42.3,31h-.2c0-.1.1-.1.1-.2h.4C42.4,30.7,42.3,30.8,42.3,31Z"/><path class="cls-1" d="M33.5,32a.3.3,0,0,1,0-.4h.4Z"/><path class="cls-1" d="M84.4.6c0-.2.2-.4-.1-.5h.3a.9.9,0,0,1-.1.5Z"/><path class="cls-1" d="M30.8,30.9l-.4-.3h.5Z"/><path class="cls-1" d="M42.1,31.2c0,.1.2.3,0,.4S41.9,31.3,42.1,31.2Z"/><path class="cls-1" d="M41,32.4l-.4.2v-.3C40.9,32.2,40.9,32.4,41,32.4Z"/><path class="cls-1" d="M38,32.3v-.5h.1v.5Z"/><path class="cls-1" d="M84.5,2a.7.7,0,0,1-.6-.1Z"/><path class="cls-1" d="M83.8,1.4h-.2l.3-.2C84,1.2,83.8,1.3,83.8,1.4Z"/><path class="cls-1" d="M84,1.7l.3-.4v.3Z"/><path class="cls-1" d="M135.4,7.8c.5-.1.5,0,.3.3S135.6,7.8,135.4,7.8Z"/><path class="cls-1" d="M91.9,1"/><path class="cls-1" d="M136.5,5.4l.2.4C136.5,5.6,136.5,5.6,136.5,5.4Z"/><path class="cls-1" d="M36.3,30.6h0v.2h-.1Z"/><path class="cls-1" d="M35.3,30.8l.2-.2C35.8,30.8,35.8,30.8,35.3,30.8Z"/><path class="cls-1" d="M40,31.7l-.2.3C39.6,31.8,39.6,31.7,40,31.7Z"/><path class="cls-1" d="M92.2,1.2,91.9,1h.4C92.3,1.1,92.2,1.1,92.2,1.2Z"/><path class="cls-1" d="M84.4,1.2l.3-.4C84.7,1,84.8,1.1,84.4,1.2Z"/><path class="cls-1" d="M82.7,1.6l-.2.2h-.1C82.4,1.5,82.5,1.6,82.7,1.6Z"/><path class="cls-1" d="M137,8.5V8.1C137.1,8.3,137.1,8.3,137,8.5Z"/><path class="cls-1" d="M39.5,30.9l.4-.3c0,.2-.1.2-.3.3Z"/><path class="cls-1" d="M39.4,30.8V31C39.2,30.9,39.3,30.8,39.4,30.8Z"/><path class="cls-1" d="M84.4.6c0,.2,0,.2-.4.2Z"/><path class="cls-1" d="M38.1,31h.3v.2l-.2-.2Z"/><path class="cls-1" d="M40.3,31.2h-.4V31Z"/><path class="cls-1" d="M39.6,32.5l-.2.2C39.4,32.6,39.4,32.5,39.6,32.5Z"/><path class="cls-1" d="M83.3,1.6c-.3-.1-.3-.2-.1-.3Z"/><path class="cls-1" d="M136.3,5.6"/><path class="cls-1" d="M137.5,14.7c.1-.2.1-.2.4-.1h-.4Z"/><path class="cls-1" d="M38.8,30.7"/><path class="cls-1" d="M80.9.1"/><path class="cls-1" d="M44.6,31.9c-.1,0-.2.2-.3,0Z"/><path class="cls-1" d="M39.2,31.4"/><path class="cls-1" d="M91.3,1.9"/><path class="cls-1" d="M40.2,32.5v.2h-.1v-.2Z"/><path class="cls-1" d="M16.9,1c-.1.2.2.3-.1.4s-.2-.3-.3-.5V.3h.3l.3.2c0,.2.1.4.1.6Z"/><path class="cls-1" d="M32.2,30.9c.2.2.7.3.6.7s.1.1.1.2-.5,0-.5.2-.2-.2,0-.4S32.3,31.1,32.2,30.9Z"/><path class="cls-1" d="M2.2,11.5a1.1,1.1,0,0,1,0-.8h.2C2.7,10.8,2.5,11.1,2.2,11.5Z"/><path class="cls-1" d="M77.3,1h-.2L76.8.7c.2-.1.4-.2.5-.1s.3.1.3.2Z"/><path class="cls-1" d="M78.4,1.8h.2V1.5h.5c.3,0,.3.1.3.2h-1Z"/><path class="cls-1" d="M75.7.1c.4.1.5.2.3.4h-.4C75.5.5,75.5.3,75.7.1Z"/><path class="cls-1" d="M29.1,32.2v.2l-.6-.3c-.2-.1.1-.2.2-.3s0,.3.2.3Z"/><path class="cls-1" d="M23.3,32.2v-.4c.2-.1.3,0,.4.2Z"/><path class="cls-1" d="M76.2,2.1c-.4,0-.4-.1-.4-.2H76C76.1,1.8,76.3,1.9,76.2,2.1Z"/><path class="cls-1" d="M75.8.7"/><path class="cls-1" d="M2,12a.3.3,0,0,1,0,.4H1.8A.5.5,0,0,1,2,12Z"/><path class="cls-1" d="M31.6,31.8H32c.2.1.1.2,0,.3s-.2-.3-.4-.4h0Z"/><path class="cls-1" d="M23.6,31c.4.1.4.1.4.3S23.7,31.2,23.6,31Z"/><path class="cls-1" d="M19.2,31.9c-.3,0-.5-.1-.5-.3S19.2,31.7,19.2,31.9Z"/><path class="cls-1" d="M18.4,1.4c-.2.1-.2,0-.2-.1s0-.2.1-.2.1.1.1.2Z"/><path class="cls-1" d="M26.8,31.3c.1-.1.3-.1.3,0v.2Z"/><path class="cls-1" d="M81.3,2l-.6-.2h.6Z"/><path class="cls-1" d="M81.8,1V.6C82,.7,82,.8,81.8,1Z"/><path class="cls-1" d="M76.6,1.3h-.1l.2.2Z"/><path class="cls-1" d="M7.9,2.1c-.1-.2,0-.3.1-.4H8C8.2,1.9,8.2,2,7.9,2.1Z"/><path class="cls-1" d="M19.3,1.8h-.4c0-.1,0-.1.1-.1h.3Z"/><path class="cls-1" d="M15.9,31.6c-.2,0-.2-.2-.3-.3l.5.2Z"/><path class="cls-1" d="M26,31.7h.2l-.3-.2Z"/><path class="cls-1" d="M30,31.3v-.4c.2.2.2.3.1.4Z"/><path class="cls-1" d="M1.4,9.1v.2H1.2c0-.1,0-.2.1-.2Z"/><path class="cls-1" d="M77.4,1.8c-.1.2-.2.2-.4.1Z"/><path class="cls-1" d="M80.2,1v.3h-.3V1Z"/><path class="cls-1" d="M22.9,1.1"/><path class="cls-1" d="M31.6,31.7c-.2.1-.3,0-.3-.1h.3Z"/><path class="cls-1" d="M77.3,1v.4L77,1.2l.2-.2Z"/><path class="cls-1" d="M33.2,32.1l.3.4C33.2,32.4,33.2,32.3,33.2,32.1Z"/><path class="cls-1" d="M29,31l-.2.2-.2-.2Z"/><path class="cls-1" d="M78.2.3c-.1.2-.1.2-.4.1Z"/><path class="cls-1" d="M13,1v.3c-.1-.1-.2-.2-.2-.3Z"/><path class="cls-1" d="M34.8,31h.3c0,.1,0,.1-.1.1h-.2Z"/><path class="cls-1" d="M8.4,1.7V1.5c.2.1.2.1.1.2Z"/><path class="cls-1" d="M29.1,32.2H29V32c.2.1.2.1.2.2Z"/><path class="cls-1" d="M27.5,32.6c-.2,0-.3-.1,0-.2Z"/><path class="cls-1" d="M75.1,2.1c0-.1,0-.1.2-.1s.1,0,.1.1Z"/><path class="cls-1" d="M76.4,1.7"/><path class="cls-1" d="M80.4,1.7c-.1,0-.2,0-.2-.2h.2Z"/><path class="cls-1" d="M28.3,31.6l-.4-.2C28.2,31.4,28.2,31.4,28.3,31.6Z"/><path class="cls-1" d="M78.2,1.4c0,.1-.1.1-.4.1h0C78,1.3,78.1,1.3,78.2,1.4Z"/><path class="cls-1" d="M76.4,1.4"/><path class="cls-1" d="M81.2,1.2c.1,0,.2,0,.2.1h-.2Z"/><path class="cls-1" d="M21.4,30.8H21c0-.1,0-.1.1-.1h.3Z"/><path class="cls-1" d="M29.6,30.6v.3C29.3,30.7,29.3,30.7,29.6,30.6Z"/><path class="cls-1" d="M11,2.2c0-.2,0-.2.2-.1Z"/><path class="cls-1" d="M32.7,31"/><path class="cls-1" d="M81.4,1.7h.3C81.6,1.7,81.5,1.8,81.4,1.7Z"/><path class="cls-1" d="M80.2,1h.3a.2.2,0,0,1-.3,0Z"/><path class="cls-1" d="M77,1.4l.2.2C77,1.5,77,1.5,77,1.4Z"/><path class="cls-1" d="M22.1,31.7l.3.2C22.1,31.9,22.1,31.8,22.1,31.7Z"/><path class="cls-1" d="M34.2,31c-.1,0-.1,0-.1-.1h.1Z"/><path class="cls-1" d="M32.2,31.7c-.1-.1-.2-.1-.1-.2h.1C32.3,31.6,32.3,31.6,32.2,31.7Z"/><path class="cls-1" d="M21.6,31.7l-.3-.2h.1Z"/><path class="cls-1" d="M79.8,1l.3.3h-.4Z"/><path class="cls-1" d="M74.5,1.2h-.2c.1-.2.2-.1.2-.1Z"/><path class="cls-1" d="M79.7,1.2h.2v.2Z"/><path class="cls-1" d="M31.6,31.2c0,.1,0,.1-.2.1s-.1,0-.1-.1Z"/><path class="cls-1" d="M75.6,1.7V1.5h0c.1,0,.1,0,.1.1h-.1Z"/><path class="cls-1" d="M78.2,1.1"/><path class="cls-1" d="M80.5.4"/><path class="cls-1" d="M23.4,32.5l.2-.2C23.6,32.5,23.5,32.5,23.4,32.5Z"/><path class="cls-1" d="M7.5,2.4H7.3C7.4,2.3,7.5,2.3,7.5,2.4Z"/><path class="cls-1" d="M7.1,30.7"/><path class="cls-1" d="M29.2,32.5"/><path class="cls-1" d="M20.3,31.1v-.2h.1Z"/><path class="cls-1" d="M73.6,1.8"/><path class="cls-1" d="M34.5,30.9"/><path class="cls-1" d="M21.7,31.2l-.2-.2h.2Z"/><path class="cls-1" d="M33.9,31.1"/><path class="cls-1" d="M29.2,31.3v-.2h.1v.2Z"/><path class="cls-1" d="M82.2,1.6h-.4C82,1.5,82,1.5,82.2,1.6Z"/><path class="cls-1" d="M28.2,32.1"/><path class="cls-1" d="M22,31.3v.2h-.1Z"/><path class="cls-1" d="M81.6,1.3"/><path class="cls-1" d="M3.7,4.5"/><path class="cls-1" d="M75.7,1.1"/><path class="cls-1" d="M75.3,1.2"/><path class="cls-1" d="M25.5,1.6c0-.1,0-.1.1-.1h-.1Z"/><path class="cls-1" d="M72.4.9"/><path class="cls-1" d="M30.3,32.2V32h0C30.2,32.1,30.2,32.2,30.3,32.2Z"/><path class="cls-1" d="M78.6.8"/><path class="cls-1" d="M27.5,32.2"/><path class="cls-1" d="M25.1,31.2"/><path class="cls-1" d="M77.7.7"/><path class="cls-1" d="M73.9,1.7"/><path class="cls-1" d="M9.2,2.7c-.1,0-.1,0-.1-.1h.1Z"/><path class="cls-1" d="M77.3.3"/><path class="cls-1" d="M43.8,30.9h.6v.2c.2.1.2-.2.4-.1s.4-.2.6,0a.2.2,0,0,1-.2.2h-.4l-.5.5v-.2h-.5C43.6,31.2,44.2,31.2,43.8,30.9Z"/><path class="cls-1" d="M109.5,32.3h-.9V32c0-.2.2-.2.5-.1Z"/><path class="cls-1" d="M111.7,32.6c-.1,0-.1-.1-.2-.2s0-.3.2-.3a.2.2,0,0,1,.3,0h.1c.1.1.2.2,0,.3Z"/><path class="cls-1" d="M136.6,10.1a.4.4,0,0,1,0,.6c0,.1.1.2.1.3s-.2.4-.7.4.4-.3.3-.4l.2-.4a.4.4,0,0,0-.1-.3C136.4,10.2,136.5,10.2,136.6,10.1Z"/><path class="cls-1" d="M137.1,16.2l.4-.3v.2c0,.1-.1.3,0,.4s-.1.1-.2.1S137.4,16.3,137.1,16.2Z"/><path class="cls-1" d="M137.6,21.6v.5h-.5C137.1,21.7,137.4,21.8,137.6,21.6Z"/><path class="cls-1" d="M137.3,9.7l.3.4h-.2l-.2-.2c-.1-.1,0-.2,0-.3Z"/><path class="cls-1" d="M106.2,32c-.2,0-.3-.1-.3-.2l.3-.2.2.3C106.4,32,106.3,32,106.2,32Z"/><path class="cls-1" d="M83.3,31.4c-.3-.3-.3-.4.1-.6A1.3,1.3,0,0,1,83.3,31.4Z"/><path class="cls-1" d="M112.7,31l-.4.2c-.1-.1-.1-.1-.1-.2s.1-.2.2-.1Z"/><path class="cls-1" d="M109.3,30.9c0-.2.1-.2.2-.2s.2,0,.2.1l-.2.2Z"/><path class="cls-1" d="M135.4,18.9a.5.5,0,0,1,.1-.6h.1A1.4,1.4,0,0,1,135.4,18.9Z"/><path class="cls-1" d="M136.1,12l.3-.5C136.6,11.8,136.5,11.9,136.1,12Z"/><path class="cls-1" d="M137.1,12l.4.3h0a.5.5,0,0,1-.5-.3Z"/><path class="cls-1" d="M111.4,30.6h.2l-.2.2h-.1C111.3,30.7,111.4,30.7,111.4,30.6Z"/><path class="cls-1" d="M137.1,13.8c.2.2.2.2.1.5Z"/><path class="cls-1" d="M136.1,13.5c.1.1.4.1.4.3l-.5-.3Z"/><path class="cls-1" d="M137.3,18.4v-.3h.2l.2.2Z"/><path class="cls-1" d="M135.7,19.2l.7-.2A.8.8,0,0,1,135.7,19.2Z"/><path class="cls-1" d="M110.8,31.8h.4C110.9,32,110.9,32,110.8,31.8Z"/><path class="cls-1" d="M135.7,27.3V27h0c0,.1,0,.1.2.1Z"/><path class="cls-1" d="M43.1,32.4h.3c0,.2-.1.3-.3.4v-.3Z"/><path class="cls-1" d="M104.7,31.7h.3l-.3.2c0-.1-.1-.1-.1-.2Z"/><path class="cls-1" d="M135.6,12.4c0-.1-.3-.2,0-.3a.4.4,0,0,1,.1.3Z"/><path class="cls-1" d="M136.3,21.6l.3-.4h0l-.2.4Z"/><path class="cls-1" d="M135.3,19.1c-.1.2,0,.4-.2.4S135.1,19.2,135.3,19.1Z"/><path class="cls-1" d="M44.6,31.9"/><path class="cls-1" d="M135.3,24.8v.4h-.1v-.4Z"/><path class="cls-1" d="M43.1,32h.4c0,.1,0,.1-.1.1s-.3-.1-.3-.2Z"/><path class="cls-1" d="M108.5,31.3h-.2c0-.1,0-.1.1-.1S108.5,31.2,108.5,31.3Z"/><path class="cls-1" d="M135.3,21.3h0c.1.1.1.2-.1.2h-.1C135.1,21.4,135.1,21.3,135.3,21.3Z"/><path class="cls-1" d="M116,31.1c0-.1,0-.1-.1-.1s0-.1.1-.1h.1C116.1,31,116.1,31,116,31.1Z"/><path class="cls-1" d="M135.6,14.3V14C135.7,14.1,135.7,14.1,135.6,14.3Z"/><path class="cls-1" d="M46.5,31.4h-.2l.2-.2Z"/><path class="cls-1" d="M137.4,24.5c0,.1-.1.1-.2,0Z"/><path class="cls-1" d="M125.5,32.5"/><path class="cls-1" d="M130.8,31.5c-.1-.1,0-.2.1-.4S130.8,31.4,130.8,31.5Z"/><path class="cls-1" d="M48.8,31.8l.3-.3h.1l-.3.2Z"/><path class="cls-1" d="M135.1,13.6v-.3h.1v.3Z"/><path class="cls-1" d="M46.8,31.8h.4l-.4.2h0Z"/><path class="cls-1" d="M102.2,30.9c-.1,0-.1.1-.2,0Z"/><path class="cls-1" d="M46.3,31.9c0,.1,0,.2-.2.2S46.2,31.9,46.3,31.9Z"/><path class="cls-1" d="M136,14.7v-.4C136.1,14.4,136.1,14.4,136,14.7Z"/><path class="cls-1" d="M136.9,23.9"/><path class="cls-1" d="M134.9,14.1v-.3h.1v.3Z"/><path class="cls-1" d="M112.9,32.5h-.2c.1,0,.1,0,.1-.1Z"/><path class="cls-1" d="M113.4,30.8c0,.1,0,.2-.2.1Z"/><path class="cls-1" d="M104,32.4"/><path class="cls-1" d="M133.2,27.5v.2h-.1v-.2Z"/><path class="cls-1" d="M137.2,20.5c-.1,0-.1,0-.1.1H137c0-.1,0-.1.1-.1Z"/><path class="cls-1" d="M51.9,31.5l.3-.2C52.2,31.5,52.2,31.5,51.9,31.5Z"/><path class="cls-1" d="M49.2,32.2h-.4l.3-.2Z"/><path class="cls-1" d="M136.9,11.2v.2h0Z"/><path class="cls-1" d="M94.3,31.1"/><path class="cls-1" d="M48.6,32.5h.3C48.8,32.7,48.7,32.6,48.6,32.5Z"/><path class="cls-1" d="M112.6,31.4"/><path class="cls-1" d="M46.5,31.4v.2h-.2c0-.1.1-.1.1-.2Z"/><path class="cls-1" d="M103.3,31.8"/><path class="cls-1" d="M41.1,31.9s.2,0,.1.2l-.2-.2Z"/><path class="cls-1" d="M112.3,31.7"/><path class="cls-1" d="M133.4,28v.3C133.2,28.1,133.2,28.1,133.4,28Z"/><path class="cls-1" d="M136.6,15.2l-.2.2C136.3,15.3,136.3,15.3,136.6,15.2Z"/><path class="cls-1" d="M137.2,23.6"/><path class="cls-1" d="M46.3,30.8h.1c-.1.1-.1.1-.1-.1Z"/><path class="cls-1" d="M137.1,23.2"/><path class="cls-1" d="M113.7,31"/><path class="cls-1" d="M107.1,31.2"/><path class="cls-1" d="M136.2,14.1H136C136.1,13.9,136.1,13.9,136.2,14.1Z"/><path class="cls-1" d="M137.1,12.7"/><path class="cls-1" d="M49.3,31.9"/><path class="cls-1" d="M116.7,32.1"/><path class="cls-1" d="M43.1,32.4c-.1,0-.2,0-.1-.1Z"/><path class="cls-1" d="M102.4,32.5h-.1C102.4,32.4,102.4,32.4,102.4,32.5Z"/><path class="cls-1" d="M137.3,24.3"/><path class="cls-1" d="M104,1.9c-.3-.1-.1-.4-.3-.6V.9a.3.3,0,0,1,.3-.3.5.5,0,0,1,.6.2h-.4a1.9,1.9,0,0,0,.2.7h-.3v.3Z"/><path class="cls-1" d="M100.2.4c.3.1.2.3.1.4h-.2C100.1.7,100.2.5,100.2.4Z"/><path class="cls-1" d="M105.2.5v.6H105a.5.5,0,0,1,0-.5Z"/><path class="cls-1" d="M105.5,2h-.1V1.7h.1c.1,0,.1,0,.1.1V2Z"/><path class="cls-1" d="M128.8,1.4a.5.5,0,0,1-.2.4C128.4,1.6,128.4,1.6,128.8,1.4Z"/><path class="cls-1" d="M109.9,1.7h0c.2,0,.2,0,.2.1Z"/><path class="cls-1" d="M98.7.3c.1-.1.4,0,.5.1A.4.4,0,0,1,98.7.3Z"/><path class="cls-1" d="M100.2,1.5v.3Q99.9,1.7,100.2,1.5Z"/><path class="cls-1" d="M113,.2"/><path class="cls-1" d="M99.3,1.6c-.1,0-.1-.1-.1-.2h.1C99.4,1.4,99.4,1.5,99.3,1.6Z"/><path class="cls-1" d="M108.4.6"/><path class="cls-1" d="M101.2,1"/><path class="cls-1" d="M98.2,1.5"/><path class="cls-1" d="M101.3.2"/><path class="cls-1" d="M134.6,4.5h.2l.2.2-.2.5c0,.2-.2.3-.2.5s0-.3-.2-.4l-.2.2h0V5.2c0-.1,0-.1.1-.2s.2-.1.2-.2Z"/><path class="cls-1" d="M135.1,6.9l-.2-.2.3-.7C135.4,6.2,135.4,6.3,135.1,6.9Z"/><path class="cls-1" d="M134.5,3.8a.9.9,0,0,1,.1.7h-.2a.6.6,0,0,1,0-.6h.1Z"/><path class="cls-1" d="M134.1,4.7a.4.4,0,0,1-.2.5h-.1Z"/><path class="cls-1" d="M135.4,7.5c-.1-.3,0-.4.3-.4Z"/><path class="cls-1" d="M134.5,3.8c.3-.1.4,0,.4.1s-.1.2-.1.3Z"/><path class="cls-1" d="M134.3,6.9V6.7c.2.1.2.1.2.3Z"/><path class="cls-1" d="M135.3,7c-.1-.1-.1-.2.1-.3V7Z"/><path class="cls-1" d="M135.3,7.7l-.2.2C135.1,7.7,135.1,7.7,135.3,7.7Z"/><path class="cls-1" d="M135.9,4.9l-.3.2Z"/><path class="cls-1" d="M135,4.1V3.8a.2.2,0,0,1,0,.3Z"/><path class="cls-1" d="M135.9,4.5l-.3.3C135.5,4.6,135.7,4.6,135.9,4.5Z"/><path class="cls-1" d="M134.8,8.3l.2-.2h.1C135,8.3,135,8.4,134.8,8.3Z"/><path class="cls-1" d="M134.9,8"/><path class="cls-1" d="M131.7,3.6c0-.1,0-.1-.2-.1a.8.8,0,0,0,.2-.4c-.2-.1,0-.1.1-.2h.1v.2C131.9,3.3,131.8,3.4,131.7,3.6Z"/><path class="cls-1" d="M130.3,1.8V1.6h.1v.2Z"/><path class="cls-1" d="M93.8,2c-.1-.1.1-.1.2-.2S94,2,93.8,2Z"/><path class="cls-1" d="M92,2h.3C92.1,2.2,92.1,2.2,92,2Z"/><path class="cls-1" d="M96.1,1.4c.1,0,.1.1,0,.1s-.2,0-.2-.1Z"/><path class="cls-1" d="M96.2.4V.2h0Z"/><path class="cls-1" d="M96.1,1.4l.2-.2C96.4,1.4,96.4,1.4,96.1,1.4Z"/></g></g><path class="cls-2" d="M11.8,19.4c.3-1.2,1-3.6,2.2-7.1a.3.3,0,0,1,.1-.2H16c.1,0,.1.1.1.2l-3.3,8.9a.1.1,0,0,1-.1.1h-2c-.1,0-.1,0-.1-.1L7.2,12.3c0-.1,0-.2.1-.2H9.4c1.2,3.4,2.1,6.1,2.4,7.2Z"/><path class="cls-2" d="M17.7,18.3c0,.8.6,1.5,2,1.5a4.8,4.8,0,0,0,1.8-.3c.1,0,.1,0,.1.1v1.3c0,.1,0,.1-.1.2a6.2,6.2,0,0,1-2.2.4,3.4,3.4,0,0,1-3.7-3.6,3.5,3.5,0,0,1,3.5-3.7,3,3,0,0,1,3.1,3c0,.5-.1.8-.1,1H17.7ZM19.5,17h.8A1.2,1.2,0,0,0,19,15.8,1.3,1.3,0,0,0,17.6,17Z"/><path class="cls-2" d="M24.9,14.4H25a1.9,1.9,0,0,1,.2.8,3,3,0,0,1,2.3-1.1c.1,0,.1,0,.1.1V16c0,.1,0,.1-.1.1a3.6,3.6,0,0,0-2.2.6v4.5c0,.1,0,.1-.1.1H23.4c-.1,0-.1,0-.1-.1V16.4a10.9,10.9,0,0,0-.1-1.9h1.7Z"/><path class="cls-2" d="M31,15.8c-.7,0-.9.2-.9.4s.2.5,1,.8,2.3,1.2,2.3,2.2-1,2.3-2.9,2.3a5.2,5.2,0,0,1-2.1-.4c-.1-.1-.2-.1-.2-.2V19.4h.2a3.9,3.9,0,0,0,2.1.6c.7,0,1-.2,1-.5s-.3-.5-1.1-.8-2.2-1.2-2.2-2.2.9-2.2,2.8-2.2a4.1,4.1,0,0,1,1.9.3c.1,0,.1.1.1.2v1.4h-.1A3.8,3.8,0,0,0,31,15.8Z"/><path class="cls-2" d="M34.4,12.5a1.1,1.1,0,0,1,1.1-1.1,1,1,0,0,1,1.1,1.1,1.1,1.1,0,1,1-2.2,0Zm.1,2h2v6.7c0,.1,0,.1-.1.1H34.6c-.1,0-.1,0-.1-.1Z"/><path class="cls-2" d="M44.8,17.8a3.6,3.6,0,1,1-7.2,0,3.5,3.5,0,0,1,3.6-3.6A3.4,3.4,0,0,1,44.8,17.8Zm-5.1,0c0,1.2.6,2,1.5,2s1.5-.7,1.5-2-.5-2-1.6-2S39.7,16.6,39.7,17.8Z"/><path class="cls-2" d="M45.9,16a6.6,6.6,0,0,0-.1-1.5h1.8c.1.1.1.2.2.4a3.5,3.5,0,0,1,2-.7c1.1,0,2.4.6,2.4,2.8v4.2c0,.1,0,.1-.1.1H50.4c-.1,0-.2,0-.2-.1v-4c0-.8-.3-1.3-1.1-1.3a2.1,2.1,0,0,0-1.2.4v4.9c0,.1,0,.1-.1.1H46c-.1,0-.1,0-.1-.1Z"/><path class="cls-2" d="M63,14.8a2.7,2.7,0,0,1-1,1.9,2.3,2.3,0,0,1,1.3,2.1c0,1.6-1.4,2.7-3.4,2.7s-3.3-1.3-3.3-2.7a2.6,2.6,0,0,1,1.2-2.1,2.3,2.3,0,0,1-.9-1.9c0-1.3,1.1-2.5,3.1-2.5S63,13.7,63,14.8Zm-1.7,3.8a1.3,1.3,0,0,0-.4-.9H59a1.8,1.8,0,0,0-.4,1c0,.7.5,1.2,1.4,1.2A1.1,1.1,0,0,0,61.3,18.6ZM58.8,15a1.3,1.3,0,0,0,.3.8h1.7a1.1,1.1,0,0,0,.3-.8A1,1,0,0,0,60,13.9,1.1,1.1,0,0,0,58.8,15Z"/><path class="cls-2" d="M69.9,15.8c-.6,0-.9.2-.9.4s.2.5,1.1.8,2.3,1.2,2.3,2.2-1.1,2.3-3,2.3a5.2,5.2,0,0,1-2.1-.4c-.1-.1-.1-.1-.1-.2V19.4h.1a4.5,4.5,0,0,0,2.1.6c.7,0,1-.2,1-.5s-.2-.5-1.1-.8-2.2-1.2-2.2-2.2,1-2.2,2.9-2.2a3.9,3.9,0,0,1,1.8.3c.1,0,.1.1.1.2v1.4h-.1A3.8,3.8,0,0,0,69.9,15.8Z"/><path class="cls-2" d="M75.1,18.3c.1.8.7,1.5,2.1,1.5a5.7,5.7,0,0,0,1.8-.3.1.1,0,0,1,.1.1v1.3c0,.1-.1.1-.1.2a6.8,6.8,0,0,1-2.3.4,3.3,3.3,0,0,1-3.6-3.6,3.5,3.5,0,0,1,3.5-3.7,2.9,2.9,0,0,1,3,3v1H75.1ZM77,17h.7a1.1,1.1,0,0,0-1.2-1.1A1.3,1.3,0,0,0,75.1,17Z"/><path class="cls-2" d="M87,19.8c0,.7.1,1.1.1,1.4s0,.1-.1.1H85.4c-.1,0-.1,0-.1-.1a.6.6,0,0,1-.1-.4,3.5,3.5,0,0,1-2,.7c-1.5,0-2.5-.8-2.5-2.7V14.5h2v4c0,.8.4,1.3,1.2,1.3a2.1,2.1,0,0,0,1.1-.4V14.5h2Z"/><path class="cls-2" d="M88.6,11.5h2v7.8c0,.4.1.6.5.6h.2c.1,0,.1,0,.1.1v1.2c0,.1,0,.1-.1.1a1.7,1.7,0,0,1-.9.2c-1,0-1.8-.4-1.8-2Z"/><path class="cls-2" d="M94,18.3c.1.8.7,1.5,2.1,1.5a5.2,5.2,0,0,0,1.8-.3.1.1,0,0,1,.1.1v1.3c0,.1-.1.1-.1.2a6.2,6.2,0,0,1-2.2.4A3.4,3.4,0,0,1,92,17.9a3.5,3.5,0,0,1,3.5-3.7,2.9,2.9,0,0,1,3,3v1H94ZM95.9,17h.7a1.1,1.1,0,0,0-1.2-1.1A1.3,1.3,0,0,0,94,17Z"/><path class="cls-2" d="M99.8,21.3c-.1,0-.1,0-.1-.1V15.9c0-.6-.1-1.2-.1-1.4h1.8a1.1,1.1,0,0,1,.1.6,2.9,2.9,0,0,1,2.1-.8,1.9,1.9,0,0,1,1.8.9,3.9,3.9,0,0,1,2.4-.9c1.3,0,2.5.7,2.5,2.8v4.2c0,.1-.1.1-.2.1h-1.7c-.1,0-.1,0-.1-.1v-4c0-.7-.3-1.3-1.1-1.3a2.5,2.5,0,0,0-1.3.4,2.2,2.2,0,0,1,.1.8v4.1a.1.1,0,0,1-.1.1h-1.8c-.1,0-.1,0-.1-.1V17.1c0-.8-.4-1.2-1.1-1.2a1.7,1.7,0,0,0-1.2.4v4.9c0,.1-.1.1-.2.1Z"/><path class="cls-2" d="M113.5,18.3c0,.8.6,1.5,2,1.5a4.8,4.8,0,0,0,1.8-.3c.1,0,.1,0,.1.1v1.3c0,.1,0,.1-.1.2a6.2,6.2,0,0,1-2.2.4,3.4,3.4,0,0,1-3.7-3.6,3.5,3.5,0,0,1,3.5-3.7,3,3,0,0,1,3.1,3c0,.5-.1.8-.1,1h-4.4Zm1.8-1.3h.8a1.2,1.2,0,0,0-1.3-1.1,1.3,1.3,0,0,0-1.4,1.2Z"/><path class="cls-2" d="M119.1,16a6.6,6.6,0,0,0-.1-1.5h1.8c.1.1.1.2.1.4a4,4,0,0,1,2.1-.7c1.1,0,2.4.6,2.4,2.8v4.2c0,.1,0,.1-.1.1h-1.7c-.1,0-.2,0-.2-.1v-4c0-.8-.4-1.3-1.1-1.3a2.1,2.1,0,0,0-1.2.4v4.9c0,.1,0,.1-.1.1h-1.8c-.1,0-.1,0-.1-.1Z"/><path class="cls-2" d="M130.6,21.1c0,.1-.1.1-.1.2l-1.3.2a1.8,1.8,0,0,1-2-2V16h-1V14.5h1c0-.5.1-1.3.1-1.7l.2-.2,1.6-.2h.2a11.5,11.5,0,0,0-.1,2h1.4v1.4h-1.4v3c0,.6.2.9.8.9h.6Z"/></svg>